<svg width="68" height="80" viewBox="0 0 68 80" fill="none" xmlns="http://www.w3.org/2000/svg">
<path fill-rule="evenodd" clip-rule="evenodd" d="M36.7785 5.87466C32.1416 5.41221 27.4635 6.11434 23.1587 7.91886C18.8539 9.72338 15.0552 12.5746 12.0991 16.2199C9.143 19.8653 7.12077 24.1922 6.21151 28.8176C5.30226 33.4429 5.53404 38.2238 6.88633 42.7367C8.23862 47.2497 10.6697 51.3555 13.9642 54.6904C15.0706 55.8104 15.0705 57.6262 13.9639 58.746C12.8574 59.8659 11.0634 59.8657 9.95697 58.7458C6.00358 54.7439 3.08631 49.8169 1.46357 44.4013C-0.15918 38.9857 -0.437318 33.2487 0.653792 27.6983C1.7449 22.1479 4.17158 16.9556 7.71888 12.5812C11.2662 8.20675 15.8246 4.7853 20.9904 2.61988C26.1562 0.454455 31.7698 -0.388102 37.3342 0.166839C42.8985 0.72178 48.2418 2.65709 52.8906 5.80134C57.5395 8.9456 61.3505 13.2017 63.986 18.1928C66.6216 23.1838 68.0003 28.7557 68.0001 34.4149C68.0001 35.9987 66.7315 37.2826 65.1667 37.2825C63.6019 37.2825 62.3334 35.9985 62.3335 34.4147C62.3336 29.6987 61.1847 25.0555 58.9884 20.8963C56.7921 16.7371 53.6163 13.1903 49.7422 10.5701C45.8682 7.94987 41.4155 6.33711 36.7785 5.87466ZM35.6671 17.2889C32.8848 17.0114 30.0778 17.4328 27.4948 18.5157C24.9118 19.5985 22.6325 21.3094 20.8589 23.4969C19.0852 25.6843 17.872 28.2808 17.3267 31.0562C16.7813 33.8316 16.9207 36.7003 17.7324 39.4081C18.5442 42.116 20.0032 44.5794 21.9803 46.5802C23.0869 47.7 23.087 49.5158 21.9806 50.6358C20.8743 51.7558 19.0803 51.7559 17.9737 50.6361C15.3376 47.9684 13.3922 44.6838 12.3099 41.0734C11.2275 37.4629 11.0417 33.638 11.7688 29.9374C12.496 26.2369 14.1136 22.775 16.4784 19.8584C18.8433 16.9418 21.8823 14.6605 25.3263 13.2167C28.7703 11.7729 32.513 11.2111 36.2228 11.5811C39.9326 11.9511 43.495 13.2414 46.5943 15.3378C49.6937 17.4342 52.2344 20.2719 53.9913 23.5996C55.7483 26.9272 56.6672 30.6421 56.6668 34.4151C56.6666 35.9989 55.3979 37.2827 53.8331 37.2825C52.2683 37.2823 50.9999 35.9982 51.0001 34.4144C51.0005 31.5847 50.3112 28.7985 48.9935 26.3028C47.6758 23.807 45.7703 21.6787 43.4458 20.1065C41.1213 18.5342 38.4495 17.5664 35.6671 17.2889ZM32.296 27.2667C33.474 26.9472 34.7218 27.4266 35.3937 28.4567L55.1402 58.7284C55.7715 59.6963 55.7647 60.9539 55.1229 61.9147C54.4811 62.8755 53.3307 63.3505 52.208 63.1181L44.2841 61.4779L48.2291 76.3908C48.6338 77.9207 47.7365 79.4931 46.2249 79.9027C44.7134 80.3123 43.1599 79.4041 42.7552 77.8742L38.8107 62.963L32.7592 68.3926C31.9016 69.1619 30.6707 69.3328 29.6402 68.8254C28.6098 68.318 27.9827 67.2324 28.0514 66.0746L30.201 29.8647C30.2741 28.6326 31.118 27.5861 32.296 27.2667ZM35.3477 38.7958L34.1181 59.5088L38.4824 55.593C39.1496 54.9945 40.0561 54.7486 40.9296 54.9294L46.6432 56.1121L35.3477 38.7958Z" fill="#FFFEFE"/>
</svg>
