<svg width="76" height="88" viewBox="0 0 76 88" fill="none" xmlns="http://www.w3.org/2000/svg">
<path d="M4 10.6667C4 6.98667 5.75754 4 7.92308 4H28.8462C31.0117 4 32.7692 6.98667 32.7692 10.6667V32.8889C32.7692 36.5689 31.0117 39.5556 28.8462 39.5556H7.92308C6.88261 39.5556 5.88476 38.8532 5.14904 37.6029C4.41332 36.3527 4 34.657 4 32.8889V10.6667ZM45.8462 19.5556C45.8462 15.8756 47.6037 12.8889 49.7692 12.8889H68.0769C70.2425 12.8889 72 15.8756 72 19.5556V68.4444C72 72.1244 70.2425 75.1111 68.0769 75.1111H49.7692C48.7288 75.1111 47.7309 74.4087 46.9952 73.1585C46.2595 71.9083 45.8462 70.2126 45.8462 68.4444V19.5556ZM9.23077 64C9.23077 60.32 10.9883 57.3333 13.1538 57.3333H31.4615C33.6271 57.3333 35.3846 60.32 35.3846 64V77.3333C35.3846 81.0133 33.6271 84 31.4615 84H13.1538C12.1134 84 11.1155 83.2976 10.3798 82.0474C9.64409 80.7971 9.23077 79.1014 9.23077 77.3333V64Z" stroke="#FFFEFE" stroke-width="7.15385" stroke-linecap="round" stroke-linejoin="round"/>
</svg>
