<svg width="641" height="597" viewBox="0 0 641 597" fill="none" xmlns="http://www.w3.org/2000/svg">
<g opacity="0.2">
<path d="M41.8836 572.112H364.711C366.026 570.033 367.34 567.955 368.67 565.922C403.397 513.052 459.002 475.375 519.728 457.691C546.935 449.773 576.404 445.051 598.261 427.03C620.76 408.474 631.092 378.883 635.556 350.087C640.966 315.207 638.047 276.109 614.371 249.911C586.568 219.158 539.98 215.719 503.756 195.559C441.41 160.863 417.245 81.8561 360.523 38.5699C324.711 11.2409 276.32 0.648614 233.049 6.64021C171.62 15.1385 113.813 56.3154 96.4652 116.629C91.6505 133.365 89.7247 151.524 91.2073 170.752C93.9891 206.747 101.723 243.201 94.417 278.555C86.362 317.515 61.02 350.423 45.8729 387.213C27.0116 433.021 24.4132 484.424 32.4836 533.304C34.6387 546.373 37.6498 559.487 41.8836 572.097V572.112Z" fill="#717EC6"/>
<path opacity="0.7" d="M41.8836 572.112H364.711C366.026 570.033 367.34 567.955 368.67 565.922C403.397 513.052 459.002 475.375 519.728 457.691C546.935 449.773 576.404 445.051 598.261 427.03C620.76 408.474 631.092 378.883 635.556 350.087C640.966 315.207 638.047 276.109 614.371 249.911C586.568 219.158 539.98 215.719 503.756 195.559C441.41 160.863 417.245 81.8561 360.523 38.5699C324.711 11.2409 276.32 0.648614 233.049 6.64021C171.62 15.1385 113.813 56.3154 96.4652 116.629C91.6505 133.365 89.7247 151.524 91.2073 170.752C93.9891 206.747 101.723 243.201 94.417 278.555C86.362 317.515 61.02 350.423 45.8729 387.213C27.0116 433.021 24.4132 484.424 32.4836 533.304C34.6387 546.373 37.6498 559.487 41.8836 572.097V572.112Z" fill="#717EC6"/>
</g>
<path d="M0.645508 572.111H640.034" stroke="#263238" stroke-linecap="round" stroke-linejoin="round"/>
<path d="M362.847 85.6309V61.634L344.872 60.0902C343.802 56.2996 342.319 52.6925 340.424 49.3145L352.025 35.5278L335.059 18.5618L321.272 30.1628C317.91 28.2675 314.287 26.7849 310.497 25.715L308.953 7.74023H284.956L283.412 25.715C279.622 26.7849 276.014 28.2675 272.636 30.1628L258.85 18.5618L241.884 35.5278L253.485 49.3145C251.605 52.6772 250.107 56.2996 249.037 60.0902L231.062 61.634V85.6309L249.037 87.1747C250.107 90.9653 251.59 94.5725 253.485 97.9504L241.884 111.737L258.85 128.703L272.636 117.102C275.999 118.982 279.622 120.48 283.412 121.55L284.956 139.525H308.953L310.497 121.55C314.287 120.48 317.894 118.997 321.272 117.102L335.059 128.703L352.025 111.737L340.424 97.9504C342.304 94.5877 343.802 90.9653 344.872 87.1747L362.847 85.6309ZM296.954 101.512C281.563 101.512 269.075 89.0241 269.075 73.6325C269.075 58.2408 281.563 45.7532 296.954 45.7532C312.346 45.7532 324.834 58.2408 324.834 73.6325C324.834 89.0241 312.346 101.512 296.954 101.512Z" stroke="white" stroke-linecap="round" stroke-linejoin="round"/>
<path d="M620.745 320.189V308.68L612.124 307.931C611.605 306.112 610.902 304.385 610 302.765L615.563 296.146L607.432 288.015L600.814 293.579C599.193 292.677 597.466 291.958 595.647 291.454L594.898 282.833H583.389L582.64 291.454C580.821 291.974 579.094 292.677 577.474 293.579L570.856 288.015L562.724 296.146L568.288 302.765C567.386 304.385 566.668 306.112 566.163 307.931L557.543 308.68V320.189L566.163 320.938C566.683 322.757 567.386 324.484 568.288 326.104L562.724 332.723L570.856 340.854L577.474 335.291C579.094 336.192 580.821 336.911 582.64 337.415L583.389 346.036H594.898L595.647 337.415C597.466 336.895 599.193 336.192 600.814 335.291L607.432 340.854L615.563 332.723L610 326.104C610.902 324.484 611.62 322.757 612.124 320.938L620.745 320.189ZM589.151 327.801C581.769 327.801 575.777 321.809 575.777 314.427C575.777 307.044 581.769 301.053 589.151 301.053C596.534 301.053 602.526 307.044 602.526 314.427C602.526 321.809 596.534 327.801 589.151 327.801Z" stroke="white" stroke-linecap="round" stroke-linejoin="round"/>
<path d="M612.094 110.713C612.614 108.436 612.904 106.082 612.904 103.652C612.904 86.3188 598.857 72.2722 581.524 72.2722C578.697 72.2722 575.946 72.6543 573.332 73.3574C568.166 64.2171 558.353 58.0269 547.103 58.0269C531.116 58.0269 518.032 70.4991 517.054 86.2424C515.571 85.9672 514.058 85.7991 512.499 85.7991C499.843 85.7991 489.434 95.352 488.059 107.626C480.63 107.794 474.654 113.846 474.654 121.321C474.654 128.795 480.783 135.031 488.364 135.031H603.443C611.009 135.031 617.153 128.902 617.153 121.321C617.153 117.041 615.181 113.22 612.109 110.698L612.094 110.713Z" stroke="white" stroke-linecap="round" stroke-linejoin="round"/>
<path d="M548.815 124.531V156.246" stroke="white" stroke-linecap="round" stroke-linejoin="round"/>
<path d="M548.815 105.501V118.188" stroke="white" stroke-linecap="round" stroke-linejoin="round"/>
<path d="M548.815 93.6558V100.426" stroke="white" stroke-linecap="round" stroke-linejoin="round"/>
<path d="M542.824 152.532L548.815 159.945L554.807 152.532" stroke="white" stroke-linecap="round" stroke-linejoin="round"/>
<path d="M261.463 482.681C261.983 480.403 262.274 478.05 262.274 475.619C262.274 458.287 248.227 444.24 230.894 444.24C228.066 444.24 225.315 444.622 222.702 445.325C217.535 436.185 207.723 429.995 196.473 429.995C180.485 429.995 167.402 442.467 166.423 458.21C164.941 457.935 163.428 457.767 161.869 457.767C149.213 457.767 138.804 467.32 137.428 479.593C130 479.761 124.024 485.814 124.024 493.288C124.024 500.763 130.153 506.999 137.734 506.999H252.812C260.378 506.999 266.523 500.87 266.523 493.288C266.523 489.009 264.551 485.188 261.479 482.666L261.463 482.681Z" stroke="white" stroke-linecap="round" stroke-linejoin="round"/>
<path d="M198.2 501.022V469.307" stroke="white" stroke-linecap="round" stroke-linejoin="round"/>
<path d="M198.2 520.052V507.366" stroke="white" stroke-linecap="round" stroke-linejoin="round"/>
<path d="M198.2 531.897V525.111" stroke="white" stroke-linecap="round" stroke-linejoin="round"/>
<path d="M204.176 473.021L198.2 465.608L192.209 473.021" stroke="white" stroke-linecap="round" stroke-linejoin="round"/>
<path d="M18.2075 80.2969H402.541C406.117 80.2969 409.021 83.201 409.021 86.7776V104.89H11.7268V86.7776C11.7268 83.201 14.6309 80.2969 18.2075 80.2969Z" fill="#1C256A" stroke="#263238" stroke-linecap="round" stroke-linejoin="round"/>
<path d="M430.649 109.445H29.1058V392.013H430.649V109.445Z" fill="white" stroke="#263238" stroke-linecap="round" stroke-linejoin="round"/>
<path d="M436.809 92.601C436.809 95.9942 434.058 98.7454 430.664 98.7454C427.271 98.7454 424.52 95.9942 424.52 92.601C424.52 89.2078 427.271 86.4565 430.664 86.4565C434.058 86.4565 436.809 89.2078 436.809 92.601Z" fill="white" stroke="#263238" stroke-linecap="round" stroke-linejoin="round"/>
<path d="M415.166 92.601C415.166 95.9942 412.415 98.7454 409.021 98.7454C405.628 98.7454 402.877 95.9942 402.877 92.601C402.877 89.2078 405.628 86.4565 409.021 86.4565C412.415 86.4565 415.166 89.2078 415.166 92.601Z" fill="white" stroke="#263238" stroke-linecap="round" stroke-linejoin="round"/>
<path d="M393.523 92.601C393.523 95.9942 390.772 98.7454 387.378 98.7454C383.985 98.7454 381.234 95.9942 381.234 92.601C381.234 89.2078 383.985 86.4565 387.378 86.4565C390.772 86.4565 393.523 89.2078 393.523 92.601Z" fill="white" stroke="#263238" stroke-linecap="round" stroke-linejoin="round"/>
<path d="M418.498 121.565H402.587" stroke="#263238" stroke-width="2" stroke-linecap="round" stroke-linejoin="round"/>
<path d="M418.498 128.016H402.587" stroke="#263238" stroke-width="2" stroke-linecap="round" stroke-linejoin="round"/>
<path d="M418.498 134.465H402.587" stroke="#263238" stroke-width="2" stroke-linecap="round" stroke-linejoin="round"/>
<path d="M56.9235 288.291H177.26" stroke="#263238" stroke-width="2" stroke-linecap="round" stroke-linejoin="round"/>
<path d="M56.9237 297.782H177.26" stroke="#263238" stroke-width="2" stroke-linecap="round" stroke-linejoin="round"/>
<path d="M56.9237 307.458H151.796" stroke="#263238" stroke-width="2" stroke-linecap="round" stroke-linejoin="round"/>
<path d="M312.102 112.639V113.403" stroke="#263238" stroke-linecap="round" stroke-linejoin="round"/>
<path d="M312.102 117.974V384.278" stroke="#263238" stroke-linecap="round" stroke-linejoin="round"/>
<path d="M312.102 386.571V387.335" stroke="#263238" stroke-linecap="round" stroke-linejoin="round"/>
<path d="M33.9511 328.643H34.7152" stroke="#263238" stroke-linecap="round" stroke-linejoin="round"/>
<path d="M39.2864 328.643H421.464" stroke="#263238" stroke-linecap="round" stroke-linejoin="round"/>
<path d="M423.741 328.643H424.505" stroke="#263238" stroke-linecap="round" stroke-linejoin="round"/>
<path d="M314.73 326.013H309.457V331.286H314.73V326.013Z" fill="white" stroke="#263238" stroke-linecap="round" stroke-linejoin="round"/>
<path d="M191.674 1H116.32C114.486 1 112.988 2.48261 112.988 4.33206V39.3951C112.988 41.2293 114.471 42.7272 116.32 42.7272H150.145L154.012 56.5445L157.879 42.7272H191.704C193.538 42.7272 195.036 41.2445 195.036 39.3951V4.33206C195.036 2.4979 193.554 1 191.704 1H191.674Z" fill="#1C256A" stroke="#263238" stroke-linecap="round" stroke-linejoin="round"/>
<path d="M125.522 11.042H182.457" stroke="white" stroke-linecap="round" stroke-linejoin="round"/>
<path d="M125.522 18.2563H182.457" stroke="white" stroke-linecap="round" stroke-linejoin="round"/>
<path d="M125.522 25.4707H182.457" stroke="white" stroke-linecap="round" stroke-linejoin="round"/>
<path d="M125.522 32.6851H168.441" stroke="white" stroke-linecap="round" stroke-linejoin="round"/>
<path d="M160.936 373.304H78.9182V424.707H160.936V373.304Z" fill="#263238" stroke="#263238" stroke-linecap="round" stroke-linejoin="round"/>
<path d="M160.936 373.304H78.9182V381.115H160.936V373.304Z" fill="#1C256A" stroke="#263238" stroke-linecap="round" stroke-linejoin="round"/>
<path d="M87.2941 387.702H108.249" stroke="white" stroke-linecap="round" stroke-linejoin="round"/>
<path d="M97.7643 393.556H134.05" stroke="white" stroke-linecap="round" stroke-linejoin="round"/>
<path d="M93.133 398.998H103.817" stroke="white" stroke-linecap="round" stroke-linejoin="round"/>
<path d="M97.7643 405.448H122.205" stroke="white" stroke-linecap="round" stroke-linejoin="round"/>
<path d="M87.2942 411.286H108.25" stroke="white" stroke-linecap="round" stroke-linejoin="round"/>
<path d="M291.054 277.989H220.637" stroke="#263238" stroke-linecap="round" stroke-linejoin="round"/>
<path d="M292.414 310.546C292.414 310.546 292.414 277.836 255.853 277.836C219.292 277.836 219.292 310.546 219.292 310.546" stroke="#263238" stroke-linecap="round" stroke-linejoin="round"/>
<path d="M292.414 313.632C294.119 313.632 295.501 312.25 295.501 310.545C295.501 308.84 294.119 307.458 292.414 307.458C290.709 307.458 289.327 308.84 289.327 310.545C289.327 312.25 290.709 313.632 292.414 313.632Z" fill="#92E3A9" stroke="#263238" stroke-linecap="round" stroke-linejoin="round"/>
<path d="M216.205 310.545C216.205 308.849 217.58 307.458 219.292 307.458C221.004 307.458 222.379 308.833 222.379 310.545C222.379 312.257 221.004 313.632 219.292 313.632C217.58 313.632 216.205 312.257 216.205 310.545Z" fill="#92E3A9" stroke="#263238" stroke-linecap="round" stroke-linejoin="round"/>
<path d="M289.709 280.542H295.119V275.131H289.709V280.542Z" fill="#92E3A9" stroke="#263238" stroke-linecap="round" stroke-linejoin="round"/>
<path d="M253.133 280.542H258.543V275.131H253.133V280.542Z" fill="#92E3A9" stroke="#263238" stroke-linecap="round" stroke-linejoin="round"/>
<path d="M216.587 280.542H221.997V275.131H216.587V280.542Z" fill="#92E3A9" stroke="#263238" stroke-linecap="round" stroke-linejoin="round"/>
<path d="M100.668 179.601V168.795L92.5673 168.092C92.0782 166.38 91.421 164.76 90.565 163.247L95.7924 157.041L88.15 149.399L81.9445 154.626C80.4313 153.77 78.7958 153.113 77.0992 152.624L76.3961 144.523H65.5899L64.8868 152.624C63.1749 153.113 61.5547 153.77 60.0415 154.626L53.836 149.399L46.1936 157.041L51.421 163.247C50.565 164.76 49.9078 166.395 49.4187 168.092L41.3178 168.795V179.601L49.4187 180.304C49.9078 182.016 50.565 183.636 51.421 185.15L46.1936 191.355L53.836 198.998L60.0415 193.77C61.5547 194.626 63.1902 195.283 64.8868 195.772L65.5899 203.873H76.3961L77.0992 195.772C78.8111 195.283 80.4313 194.626 81.9445 193.77L88.15 198.998L95.7924 191.355L90.565 185.15C91.421 183.636 92.0782 182.001 92.5673 180.304L100.668 179.601ZM70.9854 186.754C64.0461 186.754 58.4214 181.13 58.4214 174.19C58.4214 167.251 64.0461 161.626 70.9854 161.626C77.9246 161.626 83.5494 167.251 83.5494 174.19C83.5494 181.13 77.9246 186.754 70.9854 186.754Z" fill="#1C256A" stroke="#263238" stroke-linecap="round" stroke-linejoin="round"/>
<path d="M137.413 203.843V196.445L131.864 195.971C131.528 194.794 131.069 193.694 130.489 192.654L134.065 188.405L128.838 183.178L124.589 186.755C123.549 186.174 122.434 185.715 121.272 185.379L120.798 179.831H113.4L112.927 185.379C111.765 185.715 110.649 186.174 109.61 186.755L105.361 183.178L100.133 188.405L103.71 192.654C103.129 193.694 102.67 194.81 102.334 195.971L96.7859 196.445V203.843L102.334 204.317C102.67 205.494 103.129 206.594 103.71 207.633L100.133 211.883L105.361 217.11L109.61 213.533C110.649 214.114 111.765 214.573 112.927 214.909L113.4 220.457H120.798L121.272 214.909C122.449 214.573 123.549 214.114 124.589 213.533L128.838 217.11L134.065 211.883L130.489 207.633C131.069 206.594 131.528 205.478 131.864 204.317L137.413 203.843ZM117.099 208.734C112.346 208.734 108.494 204.882 108.494 200.129C108.494 195.375 112.346 191.523 117.099 191.523C121.853 191.523 125.704 195.375 125.704 200.129C125.704 204.882 121.853 208.734 117.099 208.734Z" fill="#1C256A" stroke="#263238" stroke-linecap="round" stroke-linejoin="round"/>
<path d="M327.202 346.617H386.4" stroke="#263238" stroke-width="2" stroke-linecap="round" stroke-linejoin="round"/>
<path d="M327.202 356.109H386.4" stroke="#263238" stroke-width="2" stroke-linecap="round" stroke-linejoin="round"/>
<path d="M327.202 365.784H360.951" stroke="#263238" stroke-width="2" stroke-linecap="round" stroke-linejoin="round"/>
<path d="M249.205 369.712H218.039C213.806 369.712 210.367 366.273 210.367 362.039C210.367 357.805 213.806 354.366 218.039 354.366H249.205C253.439 354.366 256.878 357.805 256.878 362.039C256.878 366.273 253.439 369.712 249.205 369.712Z" fill="#1C256A" stroke="#263238" stroke-linecap="round" stroke-linejoin="round"/>
<path d="M307.272 369.712H276.106C271.872 369.712 268.433 366.273 268.433 362.039C268.433 357.805 271.872 354.366 276.106 354.366H307.272C311.506 354.366 314.945 357.805 314.945 362.039C314.945 366.273 311.506 369.712 307.272 369.712Z" fill="#1C256A" stroke="#263238" stroke-linecap="round" stroke-linejoin="round"/>
<path d="M397.619 205.738H331.528V271.829H397.619V205.738Z" fill="white" stroke="#263238" stroke-linecap="round" stroke-linejoin="round"/>
<path d="M331.528 205.738L397.619 271.829" stroke="#263238" stroke-linecap="round" stroke-linejoin="round"/>
<path d="M397.619 205.738L331.528 271.829" stroke="#263238" stroke-linecap="round" stroke-linejoin="round"/>
<path d="M469.396 166.487H387.378V217.89H469.396V166.487Z" fill="#263238" stroke="#263238" stroke-linecap="round" stroke-linejoin="round"/>
<path d="M469.396 166.487H387.378V174.298H469.396V166.487Z" fill="#1C256A" stroke="#263238" stroke-linecap="round" stroke-linejoin="round"/>
<path d="M395.739 180.885H416.71" stroke="white" stroke-linecap="round" stroke-linejoin="round"/>
<path d="M406.224 186.724H442.51" stroke="white" stroke-linecap="round" stroke-linejoin="round"/>
<path d="M401.594 192.181H412.262" stroke="white" stroke-linecap="round" stroke-linejoin="round"/>
<path d="M406.224 198.616H430.665" stroke="white" stroke-linecap="round" stroke-linejoin="round"/>
<path d="M395.739 204.469H416.71" stroke="white" stroke-linecap="round" stroke-linejoin="round"/>
<path d="M357.451 130.721V146.143L350.649 152.945H335.227V130.721H357.451Z" fill="white" stroke="#263238" stroke-linecap="round" stroke-linejoin="round"/>
<path d="M357.45 146.144L350.649 152.945V146.144H357.45Z" fill="white" stroke="#263238" stroke-linecap="round" stroke-linejoin="round"/>
<path d="M121.104 249.987V265.41L114.303 272.211H98.8803V249.987H121.104Z" fill="white" stroke="#263238" stroke-linecap="round" stroke-linejoin="round"/>
<path d="M121.103 265.41L114.302 272.211V265.41H121.103Z" fill="white" stroke="#263238" stroke-linecap="round" stroke-linejoin="round"/>
<path d="M37.1146 344.997V360.419L30.3129 367.221H14.8907V344.997H37.1146Z" fill="white" stroke="#263238" stroke-linecap="round" stroke-linejoin="round"/>
<path d="M37.1134 360.419L30.3124 367.22V360.419H37.1134Z" fill="white" stroke="#263238" stroke-linecap="round" stroke-linejoin="round"/>
<path d="M315.327 250.996C307.241 251.683 296.97 242.024 296.97 242.024C296.97 242.024 295.395 243.537 294.081 241.657C292.766 239.761 287.065 235.39 286.744 231.599C286.423 227.809 293.149 221.664 293.149 221.664C287.952 223.086 287.401 220.044 287.401 220.044C287.401 220.044 296.129 212.83 299.186 212.646C300.378 212.57 305.59 215.566 310.619 219.601C315.877 223.835 325.751 238.737 325.751 238.737C325.751 238.737 359.148 262.994 367.6 269.2C378.743 277.392 391.949 291.928 391.949 291.928C391.949 291.928 436.305 311.92 448.471 322.91L431.949 362.069C431.949 362.069 391.643 335.061 387.608 328.214C383.573 321.366 379.553 325.478 375.518 320.999C371.482 316.521 367.615 311.401 367.615 311.401C367.615 311.401 357.864 307.121 348.433 297.461C339.003 287.786 330.703 272.99 325.491 264.125C320.279 255.26 315.342 251.026 315.342 251.026L315.327 250.996Z" fill="white" stroke="#263238" stroke-linecap="round" stroke-linejoin="round"/>
<path d="M317.787 245.28C317.787 245.28 305.758 242.36 304.718 234.428C304.382 231.845 302.135 228.879 302.135 228.879C302.135 228.879 290.901 228.329 291.619 223.759L306.583 222.429C306.583 222.429 314.791 225.104 319.636 233.404" fill="white"/>
<path d="M317.787 245.28C317.787 245.28 305.758 242.36 304.718 234.428C304.382 231.845 302.135 228.879 302.135 228.879C302.135 228.879 290.901 228.329 291.619 223.759L306.583 222.429C306.583 222.429 314.791 225.104 319.636 233.404" stroke="#263238" stroke-linecap="round" stroke-linejoin="round"/>
<path d="M296.954 242.024C296.954 242.024 297.703 240.97 297.458 238.784C297.458 238.784 300.76 238.188 300.393 235.253C300.393 235.253 305.284 234.657 302.135 228.879" stroke="#263238" stroke-linecap="round" stroke-linejoin="round"/>
<path d="M300.392 235.268C300.392 235.268 293.821 230.377 293.072 228.161" stroke="#263238" stroke-linecap="round" stroke-linejoin="round"/>
<path d="M297.473 238.783C297.473 238.783 290.458 234.519 290.336 232.012" stroke="#263238" stroke-linecap="round" stroke-linejoin="round"/>
<path d="M299.063 216.804C299.063 216.804 296.832 220.808 293.148 221.649" stroke="#263238" stroke-linecap="round" stroke-linejoin="round"/>
<path d="M297.963 218.378C297.963 218.378 299.751 219.28 301.264 220.564" stroke="#263238" stroke-linecap="round" stroke-linejoin="round"/>
<path d="M554.134 353.755C554.134 353.755 527.646 342.23 500.791 335.933C473.935 329.636 430.542 324.042 430.542 324.042C430.542 324.042 442.495 446.013 439.346 453.35C436.198 460.686 417.306 485.325 417.306 485.325C417.306 485.325 519.545 525.188 537.367 528.581C555.189 531.974 545.896 470.117 545.896 470.117C545.896 470.117 564.619 391.493 554.134 353.755Z" fill="#263238"/>
<path d="M517.451 340.656C517.451 340.656 519.881 345.287 513.492 347.641C496.939 353.755 479.301 348.359 481.181 341.878C481.899 339.402 485.995 341.878 485.735 332.631C485.705 331.439 485.277 330.048 484.62 328.565C483.611 326.273 482.021 323.766 480.416 321.519C477.619 317.606 474.746 314.442 474.746 314.442C474.746 314.442 501.02 297.675 520.508 314.442C520.508 314.442 513.263 318.111 517.451 340.656Z" fill="white" stroke="#263238" stroke-linecap="round" stroke-linejoin="round"/>
<path d="M550.007 557.897C539.66 574.756 487.157 582.674 458.498 581.925C429.855 581.191 347.378 542.139 341.784 533.87C336.603 526.212 323.871 500.901 343.496 485.601C345.055 484.393 346.798 483.247 348.785 482.177C362.22 474.901 451.574 497.844 451.574 497.844C451.574 497.844 457.107 494.344 459.14 494.603C465.376 495.398 469.793 500.442 482.434 504.034C491.253 506.556 515.326 496.865 530.703 505.196C532.384 506.097 533.943 507.213 535.38 508.589C549.748 522.314 560.34 541.038 550.007 557.897Z" fill="#1C256A"/>
<mask id="mask0_19_286" style="mask-type:luminance" maskUnits="userSpaceOnUse" x="332" y="480" width="223" height="102">
<path d="M550.007 557.897C539.66 574.756 487.157 582.674 458.498 581.925C429.855 581.191 347.378 542.139 341.784 533.87C336.603 526.212 323.871 500.901 343.496 485.601C345.055 484.393 346.798 483.247 348.785 482.177C362.22 474.901 451.574 497.844 451.574 497.844C451.574 497.844 457.107 494.344 459.14 494.603C465.376 495.398 469.793 500.442 482.434 504.034C491.253 506.556 515.326 496.865 530.703 505.196C532.384 506.097 533.943 507.213 535.38 508.589C549.748 522.314 560.34 541.038 550.007 557.897Z" fill="white"/>
</mask>
<g mask="url(#mask0_19_286)">
<path opacity="0.3" d="M530.703 505.196C514.945 504.141 500.898 507.442 491.085 513.235C479.453 520.113 424.52 546.571 424.52 546.571C424.643 543.728 427.7 537.997 427.7 537.997C422.533 533.396 409.022 529.819 409.022 529.819C398.552 520.878 357.008 494.206 343.496 485.601C345.055 484.393 346.798 483.247 348.785 482.177C362.22 474.901 451.574 497.844 451.574 497.844C451.574 497.844 457.107 494.344 459.14 494.603C465.376 495.398 469.794 500.442 482.434 504.034C491.253 506.556 515.327 496.865 530.703 505.196Z" fill="black" stroke="#263238" stroke-linecap="round" stroke-linejoin="round"/>
</g>
<path d="M550.007 557.897C539.66 574.756 487.157 582.674 458.498 581.925C429.855 581.191 347.378 542.139 341.784 533.87C336.603 526.212 323.871 500.901 343.496 485.601C345.055 484.393 346.798 483.247 348.785 482.177C362.22 474.901 451.574 497.844 451.574 497.844C451.574 497.844 457.107 494.344 459.14 494.603C465.376 495.398 469.793 500.442 482.434 504.034C491.253 506.556 515.326 496.865 530.703 505.196C532.384 506.097 533.943 507.213 535.38 508.589C549.748 522.314 560.34 541.038 550.007 557.897Z" stroke="#263238" stroke-linecap="round" stroke-linejoin="round"/>
<path d="M533.881 573.105L535.196 578.867C535.196 578.867 531.68 588.848 516.227 590.468C500.775 592.089 491.619 595.528 484.191 595.971C476.762 596.414 472.437 595.787 472.437 595.787L470.924 593.525L533.881 573.12V573.105Z" fill="white" stroke="#263238" stroke-linecap="round" stroke-linejoin="round"/>
<path d="M444.161 572.494L470.939 593.51C470.939 593.51 491.696 591.859 509.335 587.778C522.021 584.829 533.102 580.61 533.714 574.848C534.646 566.074 525.261 563.675 514.119 564.011C512.04 564.057 509.9 564.225 507.745 564.439C489.908 566.349 467.225 556.491 467.225 556.491L444.176 572.494H444.161Z" fill="#263238"/>
<mask id="mask1_19_286" style="mask-type:luminance" maskUnits="userSpaceOnUse" x="444" y="556" width="90" height="38">
<path d="M444.161 572.494L470.939 593.51C470.939 593.51 491.696 591.859 509.335 587.778C522.021 584.829 533.102 580.61 533.714 574.848C534.646 566.074 525.261 563.675 514.119 564.011C512.04 564.057 509.9 564.225 507.745 564.439C489.908 566.349 467.225 556.491 467.225 556.491L444.176 572.494H444.161Z" fill="white"/>
</mask>
<g mask="url(#mask1_19_286)">
<path opacity="0.3" d="M533.714 574.649C528.899 576.544 522.923 579.173 518.826 581.97C518.826 581.97 493.958 594.764 455.747 581.588L444.161 572.494L467.21 556.491C467.21 556.491 489.877 566.349 507.73 564.423C509.885 564.194 512.025 564.041 514.103 563.996C525.169 563.644 534.478 566.013 533.714 574.634V574.649Z" fill="black"/>
</g>
<path d="M444.161 572.494L470.939 593.51C470.939 593.51 491.696 591.859 509.335 587.778C522.021 584.829 533.102 580.61 533.714 574.848C534.646 566.074 525.261 563.675 514.119 564.011C512.04 564.057 509.9 564.225 507.745 564.439C489.908 566.349 467.225 556.491 467.225 556.491L444.176 572.494H444.161Z" stroke="#263238" stroke-linecap="round" stroke-linejoin="round"/>
<path d="M469.121 580.778C464.291 581.573 469.594 591.431 476.136 588.435C482.678 585.44 473.95 579.983 469.121 580.778Z" fill="white"/>
<mask id="mask2_19_286" style="mask-type:luminance" maskUnits="userSpaceOnUse" x="467" y="580" width="12" height="10">
<path d="M469.121 580.778C464.291 581.573 469.594 591.431 476.136 588.435C482.678 585.44 473.95 579.983 469.121 580.778Z" fill="white"/>
</mask>
<g mask="url(#mask2_19_286)">
<path opacity="0.2" d="M478.184 586.846C474.883 586.448 471.413 585.852 467.791 585.027C466.858 583.086 467.072 581.099 469.136 580.778C473.186 580.121 480.003 583.85 478.199 586.846H478.184Z" fill="black"/>
</g>
<path d="M469.121 580.778C464.291 581.573 469.594 591.431 476.136 588.435C482.678 585.44 473.95 579.983 469.121 580.778Z" stroke="#263238" stroke-linecap="round" stroke-linejoin="round"/>
<path d="M509.334 587.763C522.021 584.828 533.102 580.61 533.713 574.847C534.646 566.074 525.261 563.674 514.118 564.011C513.629 564.484 502.823 574.924 509.35 587.763H509.334Z" fill="white"/>
<mask id="mask3_19_286" style="mask-type:luminance" maskUnits="userSpaceOnUse" x="507" y="563" width="27" height="25">
<path d="M509.334 587.763C522.021 584.828 533.102 580.61 533.713 574.847C534.646 566.074 525.261 563.674 514.118 564.011C513.629 564.484 502.823 574.924 509.35 587.763H509.334Z" fill="white"/>
</mask>
<g mask="url(#mask3_19_286)">
<path opacity="0.3" d="M533.713 574.649C528.898 576.544 522.922 579.173 518.826 581.97C518.826 581.97 515.112 583.881 508.356 585.47C504.076 573.701 513.644 564.439 514.103 564.011C525.169 563.659 534.477 566.028 533.713 574.649Z" fill="black"/>
</g>
<path d="M509.334 587.763C522.021 584.828 533.102 580.61 533.713 574.847C534.646 566.074 525.261 563.674 514.118 564.011C513.629 564.484 502.823 574.924 509.35 587.763H509.334Z" stroke="#263238" stroke-linecap="round" stroke-linejoin="round"/>
<path d="M500.27 576.865C500.27 576.865 500.316 576.865 500.347 576.865C501.08 576.896 501.707 576.33 501.738 575.612C501.998 570.079 506.262 565.585 506.308 565.539C506.812 565.005 506.797 564.179 506.262 563.659C505.742 563.155 504.902 563.17 504.397 563.69C504.199 563.904 499.414 568.933 499.093 575.475C499.063 576.178 499.583 576.789 500.27 576.85V576.865Z" fill="white" stroke="#263238" stroke-linecap="round" stroke-linejoin="round"/>
<path d="M494.967 577.186C494.967 577.186 495.043 577.186 495.074 577.186C495.808 577.186 496.419 576.621 496.419 575.887C496.526 570.308 500.439 565.463 500.47 565.417C500.928 564.852 500.852 564.011 500.286 563.552C499.721 563.094 498.895 563.17 498.421 563.736C498.238 563.965 493.897 569.315 493.76 575.841C493.76 576.529 494.264 577.11 494.936 577.186H494.967Z" fill="white" stroke="#263238" stroke-linecap="round" stroke-linejoin="round"/>
<path d="M488.623 576.513C488.623 576.513 488.639 576.513 488.654 576.513C489.388 576.574 490.03 576.039 490.091 575.306C490.503 570.659 494.447 564.729 494.493 564.668C494.905 564.056 494.737 563.231 494.126 562.833C493.515 562.421 492.689 562.589 492.292 563.2C492.108 563.46 487.92 569.757 487.462 575.092C487.401 575.81 487.92 576.452 488.639 576.529L488.623 576.513Z" fill="white" stroke="#263238" stroke-linecap="round" stroke-linejoin="round"/>
<path d="M482.632 575.872C482.754 575.872 482.876 575.872 482.983 575.872C483.702 575.749 484.191 575.062 484.069 574.343C483.121 568.719 488.348 563.889 488.41 563.843C488.944 563.354 488.99 562.513 488.501 561.978C488.012 561.443 487.171 561.397 486.636 561.886C486.377 562.116 480.278 567.71 481.455 574.787C481.562 575.383 482.051 575.826 482.617 575.887L482.632 575.872Z" fill="white" stroke="#263238" stroke-linecap="round" stroke-linejoin="round"/>
<path d="M476.121 574.313C476.258 574.313 476.411 574.313 476.564 574.282C477.282 574.114 477.725 573.411 477.557 572.692C476.411 567.679 481.348 562.008 481.394 561.947C481.883 561.397 481.822 560.556 481.272 560.083C480.721 559.594 479.896 559.655 479.407 560.19C479.162 560.465 473.507 566.93 474.959 573.289C475.096 573.854 475.57 574.252 476.105 574.313H476.121Z" fill="white" stroke="#263238" stroke-linecap="round" stroke-linejoin="round"/>
<path d="M338.407 564.484L336.481 570.079C336.481 570.079 338.926 580.365 354.135 583.606C369.343 586.846 378.07 591.217 385.407 592.44C392.744 593.663 397.115 593.495 397.115 593.495L398.858 591.401L338.391 564.5L338.407 564.484Z" fill="white" stroke="#263238" stroke-linecap="round" stroke-linejoin="round"/>
<path d="M427.7 573.304L398.873 591.386C398.873 591.386 378.407 587.564 361.303 581.649C348.999 577.385 338.422 572.035 338.422 566.227C338.422 557.408 348.005 556.002 359.056 557.515C361.12 557.775 363.229 558.157 365.354 558.615C382.9 562.391 406.485 554.978 406.485 554.978L427.73 573.319L427.7 573.304Z" fill="#263238"/>
<mask id="mask4_19_286" style="mask-type:luminance" maskUnits="userSpaceOnUse" x="338" y="554" width="90" height="38">
<path d="M427.7 573.304L398.873 591.386C398.873 591.386 378.407 587.564 361.303 581.649C348.999 577.385 338.422 572.035 338.422 566.227C338.422 557.408 348.005 556.002 359.056 557.515C361.12 557.775 363.229 558.157 365.354 558.615C382.9 562.391 406.485 554.978 406.485 554.978L427.73 573.319L427.7 573.304Z" fill="white"/>
</mask>
<g mask="url(#mask4_19_286)">
<path opacity="0.3" d="M427.699 573.304L410.733 583.942C393.706 578.822 382.625 567.97 376.297 559.685C391.337 559.731 406.454 554.962 406.454 554.962L427.699 573.304Z" fill="black"/>
</g>
<path d="M427.7 573.304L398.873 591.386C398.873 591.386 378.407 587.564 361.303 581.649C348.999 577.385 338.422 572.035 338.422 566.227C338.422 557.408 348.005 556.002 359.056 557.515C361.12 557.775 363.229 558.157 365.354 558.615C382.9 562.391 406.485 554.978 406.485 554.978L427.73 573.319L427.7 573.304Z" stroke="#263238" stroke-linecap="round" stroke-linejoin="round"/>
<path d="M361.288 581.649C348.983 577.4 338.406 572.05 338.406 566.242C338.406 557.422 347.99 556.016 359.041 557.529C359.484 558.049 369.129 569.574 361.288 581.664V581.649Z" fill="white" stroke="#263238" stroke-linecap="round" stroke-linejoin="round"/>
<path d="M371.437 571.76C371.437 571.76 371.391 571.76 371.36 571.76C370.627 571.714 370.076 571.088 370.107 570.369C370.428 564.852 366.668 559.915 366.622 559.869C366.179 559.288 366.286 558.463 366.851 558.004C367.432 557.561 368.258 557.668 368.701 558.233C368.884 558.463 373.103 563.965 372.736 570.507C372.69 571.21 372.109 571.76 371.422 571.76H371.437Z" fill="white" stroke="#263238" stroke-linecap="round" stroke-linejoin="round"/>
<path d="M376.68 572.631C376.68 572.631 376.603 572.631 376.573 572.631C375.839 572.57 375.304 571.928 375.365 571.194C375.839 565.631 372.461 560.403 372.431 560.342C372.033 559.731 372.201 558.905 372.813 558.508C373.424 558.111 374.25 558.279 374.647 558.89C374.8 559.135 378.56 564.912 378.01 571.408C377.948 572.096 377.368 572.616 376.695 572.616L376.68 572.631Z" fill="white" stroke="#263238" stroke-linecap="round" stroke-linejoin="round"/>
<path d="M383.054 572.631H383.023C382.289 572.631 381.708 572.02 381.724 571.286C381.8 566.624 378.499 560.312 378.468 560.251C378.132 559.609 378.376 558.799 379.018 558.462C379.66 558.111 380.47 558.371 380.807 559.012C380.96 559.303 384.46 565.998 384.368 571.347C384.368 572.066 383.757 572.646 383.038 572.646L383.054 572.631Z" fill="white" stroke="#263238" stroke-linecap="round" stroke-linejoin="round"/>
<path d="M389.076 572.631C388.954 572.631 388.847 572.616 388.724 572.586C388.021 572.387 387.609 571.653 387.807 570.95C389.336 565.448 384.643 560.113 384.598 560.052C384.108 559.502 384.154 558.677 384.705 558.188C385.255 557.698 386.08 557.744 386.569 558.294C386.799 558.554 392.286 564.76 390.36 571.669C390.192 572.249 389.657 572.631 389.091 572.631H389.076Z" fill="white" stroke="#263238" stroke-linecap="round" stroke-linejoin="round"/>
<path d="M395.724 571.76C395.587 571.76 395.434 571.729 395.296 571.683C394.609 571.439 394.242 570.69 394.471 570.002C396.137 565.142 391.827 558.982 391.781 558.921C391.353 558.325 391.49 557.499 392.087 557.071C392.683 556.643 393.508 556.781 393.936 557.377C394.15 557.667 399.102 564.698 396.978 570.873C396.794 571.424 396.275 571.775 395.724 571.775V571.76Z" fill="white" stroke="#263238" stroke-linecap="round" stroke-linejoin="round"/>
<path d="M402.006 578.928C406.729 580.212 400.417 589.475 394.226 585.807C388.036 582.138 397.298 577.629 402.006 578.928Z" fill="white" stroke="#263238" stroke-linecap="round" stroke-linejoin="round"/>
<path d="M347.501 529.804C354.593 539.723 375.563 550.683 396.473 559.731C398.719 563.445 403.29 570.4 409.587 576.865C422.457 590.102 427.699 582.689 427.699 582.689C427.699 582.689 435.831 581.772 447.829 580.136C448.624 581.68 450.458 584.095 453.897 583.545C455.456 583.3 458.467 581.068 461.86 578.119C492.17 573.564 533.301 565.952 544.413 556.995" fill="#1C256A"/>
<path d="M347.501 529.804C354.593 539.723 375.563 550.683 396.473 559.731C398.719 563.445 403.29 570.4 409.587 576.865C422.457 590.102 427.699 582.689 427.699 582.689C427.699 582.689 435.831 581.772 447.829 580.136C448.624 581.68 450.458 584.095 453.897 583.545C455.456 583.3 458.467 581.068 461.86 578.119C492.17 573.564 533.301 565.952 544.413 556.995" stroke="#263238" stroke-linecap="round" stroke-linejoin="round"/>
<path d="M532.522 510.942C527.279 505.18 522.036 504.92 511.031 505.7C511.031 505.7 482.312 514.809 462.289 526.93C442.266 539.051 413.011 551.783 413.011 551.783C413.011 551.783 404.1 549.2 397.894 551.783C397.894 551.783 393.538 552.119 396.458 559.731" stroke="#263238" stroke-linecap="round" stroke-linejoin="round"/>
<path d="M545.896 545.363C545.896 545.363 546.049 554.243 533.454 560.388" stroke="#263238" stroke-linecap="round" stroke-linejoin="round"/>
<path d="M406.988 508.313C406.988 508.313 426.874 522.681 430.833 532.157C430.833 532.157 438.475 535.413 442.128 537.981" stroke="#263238" stroke-linecap="round" stroke-linejoin="round"/>
<path d="M432.285 520.266C433.615 524.392 434.119 528.886 432.988 533.12" stroke="#263238" stroke-linecap="round" stroke-linejoin="round"/>
<path d="M427.7 510.942C428.785 512.516 429.732 514.182 430.542 515.909" stroke="#263238" stroke-linecap="round" stroke-linejoin="round"/>
<path d="M455.991 509.628C455.991 509.628 462.64 518.508 464.291 525.738" stroke="#263238" stroke-linecap="round" stroke-linejoin="round"/>
<path d="M493.026 563.353C495.502 563.2 497.962 562.925 500.392 562.451" stroke="#263238" stroke-linecap="round" stroke-linejoin="round"/>
<path d="M430.665 556.995C448.808 560.464 468.693 563.108 487.829 563.552" stroke="#263238" stroke-linecap="round" stroke-linejoin="round"/>
<path d="M565.154 422.2C565.154 422.2 561.562 484.791 557.329 488.459C553.095 492.127 546.415 493.182 533.775 494.221C521.134 495.276 465.223 498.7 465.223 498.7L459.247 480.74C459.247 480.74 488.975 477.729 502.166 472.869C515.357 468.008 532.537 464.829 532.537 464.829C532.537 464.829 530.045 449.07 530.045 442.284V410.37" fill="white"/>
<path d="M565.154 422.2C565.154 422.2 561.562 484.791 557.329 488.459C553.095 492.127 546.415 493.182 533.775 494.221C521.134 495.276 465.223 498.7 465.223 498.7L459.247 480.74C459.247 480.74 488.975 477.729 502.166 472.869C515.357 468.008 532.537 464.829 532.537 464.829C532.537 464.829 530.045 449.07 530.045 442.284V410.37" stroke="#263238" stroke-linecap="round" stroke-linejoin="round"/>
<path d="M554.134 353.755C567.768 362.146 571.788 381.542 567.065 422.949C567.065 422.949 571.085 427.84 565.139 430.285C565.139 430.285 542.884 421.955 532.521 427.702C522.158 433.434 524.849 419.769 524.849 419.769C524.849 419.769 520.584 381.68 530.015 374.802" fill="#263238"/>
<path d="M528.807 368.948C528.807 368.948 515.708 382.582 527.233 417.003C527.233 417.003 525.628 423.269 525.643 425.562C525.643 427.855 528.807 429.062 528.807 429.062" stroke="white" stroke-linecap="round" stroke-linejoin="round"/>
<path d="M513.492 392.013C513.492 392.013 514.44 408.78 524.864 416.132" stroke="white" stroke-linecap="round" stroke-linejoin="round"/>
<path d="M516.855 352.975C516.855 352.975 496.542 360.755 480.386 352.135C470.802 347.03 474.746 338.822 474.746 338.822" stroke="white" stroke-linecap="round" stroke-linejoin="round"/>
<path d="M370.78 510.958H481.349C483.84 510.958 486.332 510.637 488.747 510.01L510.558 504.294C511.185 504.126 511.613 503.576 511.613 502.934C511.613 502.154 510.986 501.527 510.206 501.527H366.225C365.445 501.527 364.819 502.154 364.819 502.934V504.997C364.819 508.298 367.493 510.973 370.795 510.973L370.78 510.958Z" fill="#757575" stroke="#263238" stroke-linecap="round" stroke-linejoin="round"/>
<path d="M359.82 505.471H470.695C472.637 505.471 473.783 503.881 473.278 501.909L452.705 421.925C452.201 419.953 450.229 418.363 448.288 418.363H337.413C335.472 418.363 334.326 419.953 334.83 421.925L355.403 501.909C355.907 503.881 357.879 505.471 359.82 505.471Z" fill="#999999" stroke="#263238" stroke-linecap="round" stroke-linejoin="round"/>
<path d="M341.325 421.222H339.232" stroke="#263238" stroke-linecap="round" stroke-linejoin="round"/>
<path d="M357.574 421.222H346.737" stroke="#263238" stroke-linecap="round" stroke-linejoin="round"/>
<path d="M468.02 495.352L449.862 424.768C449.358 422.796 447.371 421.207 445.445 421.207H360.019" stroke="#263238" stroke-linecap="round" stroke-linejoin="round"/>
<path d="M469.61 501.512L469.151 499.754" stroke="#263238" stroke-linecap="round" stroke-linejoin="round"/>
<path d="M393.187 463.943C393.263 464.569 393.386 465.211 393.569 465.853C394.991 470.668 399.5 473.587 403.642 472.38C407.784 471.157 410 466.266 408.594 461.451C407.157 456.621 402.648 453.717 398.506 454.925C398.017 455.078 397.543 455.276 397.1 455.521C397.451 459.082 395.923 462.414 393.187 463.943Z" fill="white" stroke="#263238" stroke-linecap="round" stroke-linejoin="round"/>
<path d="M442.128 314.045C432.529 312.991 427.286 303.881 421.524 302.46C415.762 301.038 412.078 299.418 412.078 299.418C412.078 299.418 410.091 292.463 407.111 294.894C404.145 297.324 400.217 349.139 404.054 347.519C407.89 345.899 407.89 352.013 407.89 352.013L443.519 383.423L473.385 330.538C473.385 330.538 451.711 315.115 442.112 314.061L442.128 314.045Z" fill="#263238"/>
<path d="M151.795 129.208V128.443H152.56" stroke="#263238" stroke-linecap="round" stroke-linejoin="round"/>
<path d="M157.053 128.443H286.361" stroke="#263238" stroke-linecap="round" stroke-linejoin="round"/>
<path d="M288.593 128.443H289.357V129.208" stroke="#263238" stroke-linecap="round" stroke-linejoin="round"/>
<path d="M289.357 133.793V217.094" stroke="#263238" stroke-linecap="round" stroke-linejoin="round"/>
<path d="M289.357 219.387V220.151H288.593" stroke="#263238" stroke-linecap="round" stroke-linejoin="round"/>
<path d="M284.115 220.151H154.807" stroke="#263238" stroke-linecap="round" stroke-linejoin="round"/>
<path d="M152.559 220.151H151.795V219.387" stroke="#263238" stroke-linecap="round" stroke-linejoin="round"/>
<path d="M151.795 214.802V131.5" stroke="#263238" stroke-linecap="round" stroke-linejoin="round"/>
<path d="M220.577 130.705C221.826 130.705 222.839 129.692 222.839 128.443C222.839 127.194 221.826 126.181 220.577 126.181C219.327 126.181 218.315 127.194 218.315 128.443C218.315 129.692 219.327 130.705 220.577 130.705Z" fill="#92E3A9" stroke="#263238" stroke-linecap="round" stroke-linejoin="round"/>
<path d="M151.796 176.559C153.045 176.559 154.058 175.546 154.058 174.297C154.058 173.048 153.045 172.035 151.796 172.035C150.546 172.035 149.534 173.048 149.534 174.297C149.534 175.546 150.546 176.559 151.796 176.559Z" fill="#92E3A9" stroke="#263238" stroke-linecap="round" stroke-linejoin="round"/>
<path d="M220.577 222.413C221.826 222.413 222.839 221.4 222.839 220.151C222.839 218.902 221.826 217.889 220.577 217.889C219.327 217.889 218.315 218.902 218.315 220.151C218.315 221.4 219.327 222.413 220.577 222.413Z" fill="#92E3A9" stroke="#263238" stroke-linecap="round" stroke-linejoin="round"/>
<path d="M289.358 176.559C290.607 176.559 291.62 175.546 291.62 174.297C291.62 173.048 290.607 172.035 289.358 172.035C288.108 172.035 287.096 173.048 287.096 174.297C287.096 175.546 288.108 176.559 289.358 176.559Z" fill="#92E3A9" stroke="#263238" stroke-linecap="round" stroke-linejoin="round"/>
<path d="M292.001 217.522H286.729V222.795H292.001V217.522Z" fill="#92E3A9" stroke="#263238" stroke-linecap="round" stroke-linejoin="round"/>
<path d="M292.001 125.814H286.729V131.087H292.001V125.814Z" fill="#92E3A9" stroke="#263238" stroke-linecap="round" stroke-linejoin="round"/>
<path d="M154.439 217.522H149.167V222.795H154.439V217.522Z" fill="#92E3A9" stroke="#263238" stroke-linecap="round" stroke-linejoin="round"/>
<path d="M154.439 125.814H149.166V131.087H154.439V125.814Z" fill="#92E3A9" stroke="#263238" stroke-linecap="round" stroke-linejoin="round"/>
<path d="M280.661 136.56H160.936V212.631H280.661V136.56Z" fill="white" stroke="#263238" stroke-linecap="round" stroke-linejoin="round"/>
<path d="M280.646 190.148L267.348 203.461L231.337 167.466L216.19 182.613L192.025 158.448L160.936 189.552V212.632H280.646V190.148Z" fill="#1C256A" stroke="#263238" stroke-linecap="round" stroke-linejoin="round"/>
<path d="M255.854 166.594C260.522 166.594 264.306 162.81 264.306 158.142C264.306 153.474 260.522 149.689 255.854 149.689C251.186 149.689 247.401 153.474 247.401 158.142C247.401 162.81 251.186 166.594 255.854 166.594Z" fill="#1C256A" stroke="#263238" stroke-linecap="round" stroke-linejoin="round"/>
<path d="M448.456 328.062C448.456 328.062 439.361 345.135 438.215 371.256" stroke="white" stroke-linecap="round" stroke-linejoin="round"/>
<path d="M421.539 339.892C421.539 339.892 424.275 354.412 432.285 364.928" stroke="white" stroke-linecap="round" stroke-linejoin="round"/>
<path d="M459.231 399.792C459.231 399.792 472.957 444.973 502.884 458.286" stroke="white" stroke-linecap="round" stroke-linejoin="round"/>
<path d="M495.395 318.019C495.395 318.019 494.096 327.878 484.619 328.565C483.611 326.273 482.021 323.766 480.416 321.519C486.698 319.502 495.395 318.019 495.395 318.019Z" fill="#263238"/>
<path d="M515.586 318.707C515.586 318.707 531.436 320.648 538.07 299.372C544.703 278.095 539.491 262.062 513.247 254.343C498.696 250.063 484.161 253.502 478.918 264.507C474.424 273.938 476.549 281.794 475.51 284.958C474.348 288.504 463.633 291.515 463.633 293.946C463.633 295.963 469.579 299.372 469.579 299.372L467.837 304.66L469.487 305.531C469.487 305.531 466.446 317.438 467.837 321.641C468.861 324.714 495.701 325.982 497.795 318.386" fill="white"/>
<path d="M515.586 318.707C515.586 318.707 531.436 320.648 538.07 299.372C544.703 278.095 539.491 262.062 513.247 254.343C498.696 250.063 484.161 253.502 478.918 264.507C474.424 273.938 476.549 281.794 475.51 284.958C474.348 288.504 463.633 291.515 463.633 293.946C463.633 295.963 469.579 299.372 469.579 299.372L467.837 304.66L469.487 305.531C469.487 305.531 466.446 317.438 467.837 321.641C468.861 324.714 495.701 325.982 497.795 318.386" stroke="#263238" stroke-linecap="round" stroke-linejoin="round"/>
<path d="M479.055 272.241C479.055 272.241 484.298 273.556 485.734 276.306" stroke="#263238" stroke-linecap="round" stroke-linejoin="round"/>
<path d="M479.988 284.316C479.759 285.86 480.111 287.189 480.783 287.281C481.44 287.373 482.159 286.211 482.388 284.668C482.617 283.124 482.266 281.795 481.593 281.703C480.921 281.611 480.218 282.773 479.988 284.316Z" fill="#263238"/>
<path d="M469.472 305.532C469.472 305.532 478.001 308.803 481.18 306.831" stroke="#263238" stroke-linecap="round" stroke-linejoin="round"/>
<path d="M472.468 283.109C471.841 286.518 472.606 289.529 474.18 289.819C475.754 290.11 477.542 287.588 478.184 284.164C478.826 280.74 478.047 277.744 476.473 277.454C474.898 277.164 473.11 279.685 472.468 283.109Z" stroke="#263238" stroke-linecap="round" stroke-linejoin="round"/>
<path d="M538.773 265.684C538.773 265.684 537.55 256.773 528.807 250.308C520.064 243.843 509.594 242.452 509.594 242.452C509.594 242.452 514.669 244.668 516.579 247.572C516.579 247.572 503.48 237.729 487.921 244.194C472.376 250.66 474.287 267.457 474.287 267.457L476.564 263.055C476.564 263.055 476.304 268.298 479.056 270.224C479.056 270.224 480.722 265.149 482.403 262.887C482.403 262.887 486.53 275.298 497.886 279.486C497.886 279.486 496.664 277.041 497.718 273.373C497.718 273.373 504 287.007 502.166 293.64L504.184 297.14C504.184 297.14 511.413 289.819 517.283 295.917C520.66 299.418 510.817 312.685 509.426 312.685L515.372 321.428C515.372 321.428 530.229 323.537 538.788 307.457C547.347 291.378 545.254 284.5 545.254 284.5C545.254 284.5 548.051 288.413 548.402 290.675C548.402 290.675 550.848 273.373 538.788 265.684H538.773Z" fill="#263238"/>
<path d="M503.817 298.714C503.817 298.714 508.372 283.292 518.154 288.734C527.936 294.175 520.936 302.383 517.451 305.531C513.951 308.68 511.337 314.442 509.06 314.442C506.782 314.442 506.263 311.645 506.263 311.645" fill="white"/>
<path d="M503.817 298.714C503.817 298.714 508.372 283.292 518.154 288.734C527.936 294.175 520.936 302.383 517.451 305.531C513.951 308.68 511.337 314.442 509.06 314.442C506.782 314.442 506.263 311.645 506.263 311.645" stroke="#263238" stroke-linecap="round" stroke-linejoin="round"/>
<path d="M478.185 284.164L505.391 289.819" stroke="#263238" stroke-linecap="round" stroke-linejoin="round"/>
</svg>
