<svg width="73" height="84" viewBox="0 0 73 84" fill="none" xmlns="http://www.w3.org/2000/svg">
<path d="M70.7059 18.9231C70.7059 28.2687 55.3241 35.8462 36.3529 35.8462C17.3818 35.8462 2 28.2687 2 18.9231M70.7059 18.9231C70.7059 9.57744 55.3241 2 36.3529 2C17.3818 2 2 9.57744 2 18.9231M70.7059 18.9231V65.0769C70.7059 74.4226 55.3241 82 36.3529 82C17.3818 82 2 74.4226 2 65.0769V18.9231M70.7059 18.9231V34.3077M2 18.9231V34.3077M70.7059 34.3077V49.6923C70.7059 59.038 55.3241 66.6154 36.3529 66.6154C17.3818 66.6154 2 59.038 2 49.6923V34.3077M70.7059 34.3077C70.7059 43.6533 55.3241 51.2308 36.3529 51.2308C17.3818 51.2308 2 43.6533 2 34.3077" stroke="white" stroke-width="3.89305" stroke-linecap="round" stroke-linejoin="round"/>
</svg>
