<svg width="68" height="80" viewBox="0 0 68 80" fill="none" xmlns="http://www.w3.org/2000/svg">
<path fill-rule="evenodd" clip-rule="evenodd" d="M22.4627 6.66667C21.1431 6.66667 19.8416 7.08836 18.6614 7.89835C17.4811 8.7083 16.4545 9.88425 15.6628 11.3331C15.6628 11.3332 15.6627 11.3333 15.6627 11.3333L10.8784 20.0906C11.2966 20.0305 11.7186 20 12.1429 20H55.8571C56.2814 20 56.7034 20.0305 57.1216 20.0906L52.3379 11.3343C50.7303 8.39457 48.2114 6.66667 45.5373 6.66667H22.4627ZM68 36.6667C68 31.6181 66.807 26.7058 64.6001 22.6669C64.6001 22.6668 64.6 22.6668 64.6 22.6667L56.2232 7.33358L56.2225 7.33233C53.6983 2.71654 49.741 0 45.5373 0H22.4627C20.389 0 18.3439 0.662661 16.4892 1.9355C14.6345 3.20834 13.0211 5.0564 11.777 7.33333L11.7768 7.33358L3.4 22.6667C3.39996 22.6668 3.39991 22.6668 3.39987 22.6669C1.19298 26.7058 0 31.6181 0 36.6667C0 41.0869 1.27933 45.3262 3.55656 48.4518C3.96524 49.0127 4.40005 49.5295 4.85706 50C4.40005 50.4705 3.96524 50.9873 3.55656 51.5482C1.27933 54.6738 0 58.9131 0 63.3333C0 67.7536 1.27933 71.9928 3.55656 75.1185C5.83379 78.2441 8.92237 80 12.1429 80H55.8571C59.0776 80 62.1662 78.2441 64.4434 75.1185C66.7207 71.9928 68 67.7536 68 63.3333C68 58.9131 66.7207 54.6738 64.4434 51.5482C64.0348 50.9873 63.5999 50.4705 63.1429 50C63.5999 49.5295 64.0348 49.0127 64.4434 48.4518C66.7207 45.3262 68 41.0869 68 36.6667ZM55.8571 46.6667C57.7894 46.6667 59.6426 45.6131 61.0089 43.7377C62.3753 41.8624 63.1429 39.3188 63.1429 36.6667C63.1429 34.0145 62.3753 31.471 61.0089 29.5956C59.6426 27.7202 57.7894 26.6667 55.8571 26.6667H12.1429C10.2106 26.6667 8.35742 27.7202 6.99108 29.5956C5.62474 31.471 4.85714 34.0145 4.85714 36.6667C4.85714 39.3188 5.62474 41.8624 6.99108 43.7377C8.35742 45.6131 10.2106 46.6667 12.1429 46.6667H55.8571ZM55.8571 53.3333C57.7894 53.3333 59.6426 54.3869 61.0089 56.2623C62.3753 58.1376 63.1429 60.6812 63.1429 63.3333C63.1429 65.9855 62.3753 68.529 61.0089 70.4044C59.6426 72.2798 57.7894 73.3333 55.8571 73.3333H12.1429C10.2106 73.3333 8.35742 72.2798 6.99108 70.4044C5.62474 68.529 4.85714 65.9855 4.85714 63.3333C4.85714 60.6812 5.62474 58.1376 6.99108 56.2623C8.35742 54.3869 10.2106 53.3333 12.1429 53.3333H55.8571ZM43.7143 36.6667C43.7143 34.8257 44.8016 33.3333 46.1429 33.3333H46.1688C47.51 33.3333 48.5973 34.8257 48.5973 36.6667V36.7022C48.5973 38.5432 47.51 40.0356 46.1688 40.0356H46.1429C44.8016 40.0356 43.7143 38.5432 43.7143 36.7022V36.6667ZM53.4286 36.6667C53.4286 34.8257 54.5159 33.3333 55.8571 33.3333H55.883C57.2243 33.3333 58.3116 34.8257 58.3116 36.6667V36.7022C58.3116 38.5432 57.2243 40.0356 55.883 40.0356H55.8571C54.5159 40.0356 53.4286 38.5432 53.4286 36.7022V36.6667ZM43.7143 63.3333C43.7143 61.4924 44.8016 60 46.1429 60H46.1688C47.51 60 48.5973 61.4924 48.5973 63.3333V63.3689C48.5973 65.2098 47.51 66.7022 46.1688 66.7022H46.1429C44.8016 66.7022 43.7143 65.2098 43.7143 63.3689V63.3333ZM53.4286 63.3333C53.4286 61.4924 54.5159 60 55.8571 60H55.883C57.2243 60 58.3116 61.4924 58.3116 63.3333V63.3689C58.3116 65.2098 57.2243 66.7022 55.883 66.7022H55.8571C54.5159 66.7022 53.4286 65.2098 53.4286 63.3689V63.3333Z" fill="#FFFEFE"/>
</svg>
