<svg width="80" height="68" viewBox="0 0 80 68" fill="none" xmlns="http://www.w3.org/2000/svg">
<path fill-rule="evenodd" clip-rule="evenodd" d="M12.3077 5.66667C10.6756 5.66667 9.11034 6.26369 7.95627 7.3264C6.8022 8.3891 6.15385 9.83044 6.15385 11.3333V17H73.8462V11.3333C73.8462 9.83044 73.1978 8.3891 72.0437 7.3264C70.8897 6.26369 69.3244 5.66667 67.6923 5.66667H12.3077ZM73.8462 22.6667H6.15385V56.6667C6.15385 58.1696 6.8022 59.6109 7.95627 60.6736C9.11034 61.7363 10.6756 62.3333 12.3077 62.3333H67.6923C69.3244 62.3333 70.8897 61.7363 72.0437 60.6736C73.1978 59.6109 73.8462 58.1696 73.8462 56.6667V22.6667ZM3.60484 3.31946C5.91298 1.19405 9.04349 0 12.3077 0H67.6923C70.9565 0 74.087 1.19405 76.3952 3.31946C78.7033 5.44487 80 8.32755 80 11.3333V56.6667C80 59.6725 78.7033 62.5551 76.3952 64.6805C74.087 66.806 70.9565 68 67.6923 68H12.3077C9.04349 68 5.91298 66.806 3.60484 64.6805C1.2967 62.5551 0 59.6725 0 56.6667V11.3333C0 8.32755 1.2967 5.44487 3.60484 3.31946ZM9.23077 11.3333C9.23077 9.76853 10.6084 8.5 12.3077 8.5H12.3405C14.0399 8.5 15.4174 9.76853 15.4174 11.3333V11.3636C15.4174 12.9284 14.0399 14.1969 12.3405 14.1969H12.3077C10.6084 14.1969 9.23077 12.9284 9.23077 11.3636V11.3333ZM18.4615 11.3333C18.4615 9.76853 19.8391 8.5 21.5385 8.5H21.5713C23.2706 8.5 24.6482 9.76853 24.6482 11.3333V11.3636C24.6482 12.9284 23.2706 14.1969 21.5713 14.1969H21.5385C19.8391 14.1969 18.4615 12.9284 18.4615 11.3636V11.3333ZM27.6923 11.3333C27.6923 9.76853 29.0699 8.5 30.7692 8.5H30.8021C32.5014 8.5 33.879 9.76853 33.879 11.3333V11.3636C33.879 12.9284 32.5014 14.1969 30.8021 14.1969H30.7692C29.0699 14.1969 27.6923 12.9284 27.6923 11.3636V11.3333Z" fill="#FFFEFE"/>
</svg>
