<svg width="86" height="74" viewBox="0 0 86 74" fill="none" xmlns="http://www.w3.org/2000/svg">
<path d="M3 43.1818H18.8359C20.5499 43.1823 22.23 43.6621 23.6879 44.5676C25.1458 45.4731 26.3239 46.7685 27.0903 48.3086L28.1405 50.4187C28.9072 51.9594 30.0859 53.2552 31.5446 54.1608C33.0033 55.0663 34.6842 55.5458 36.399 55.5455H49.601C51.3158 55.5458 52.9967 55.0663 54.4554 54.1608C55.9141 53.2552 57.0928 51.9594 57.8595 50.4187L58.9097 48.3086C59.6764 46.7678 60.8552 45.472 62.3139 44.5665C63.7725 43.661 65.4535 43.1815 67.1682 43.1818H83M3 44.5748V61.7273C3 64.1866 3.97252 66.5451 5.70363 68.2841C7.43473 70.0231 9.78262 71 12.2308 71H73.7692C76.2174 71 78.5653 70.0231 80.2964 68.2841C82.0275 66.5451 83 64.1866 83 61.7273V44.5748C83 43.6516 82.8605 42.7326 82.5897 41.8507L72.7026 9.54448C72.1219 7.64972 70.952 5.99179 69.3645 4.81395C67.7771 3.6361 65.8556 3.00036 63.8821 3H22.1221C20.1485 3.00036 18.227 3.6361 16.6396 4.81395C15.0521 5.99179 13.8822 7.64972 13.3015 9.54448L3.41026 41.8507C3.13923 42.7331 3.00095 43.6513 3 44.5748Z" stroke="#FFFEFE" stroke-width="6" stroke-linecap="round" stroke-linejoin="round"/>
</svg>
