<svg width="68" height="80" viewBox="0 0 68 80" fill="none" xmlns="http://www.w3.org/2000/svg">
<path fill-rule="evenodd" clip-rule="evenodd" d="M53.4285 0C54.5426 0 55.5139 0.891954 55.7844 2.16355L56.623 6.10641C56.9966 7.86503 57.7697 9.47197 58.8592 10.7537C59.9487 12.0355 61.3139 12.9448 62.8087 13.3843L66.1609 14.3712C67.2417 14.6894 67.9999 15.832 67.9999 17.1429C67.9999 18.4537 67.2417 19.5963 66.1609 19.9145L62.8094 20.9012C61.3146 21.3407 59.9487 22.2502 58.8592 23.532C57.7697 24.8137 56.9968 26.4198 56.6232 28.1785L55.7844 32.1222C55.5139 33.3938 54.5426 34.2857 53.4285 34.2857C52.3143 34.2857 51.343 33.3938 51.0725 32.1222L50.2339 28.1793C49.8605 26.421 49.0878 24.8141 47.9987 23.5324C46.9098 22.2508 45.5454 21.3414 44.0512 20.9014C44.0511 20.9013 44.0514 20.9014 44.0512 20.9014L40.6966 19.9147C39.6155 19.5967 38.857 18.4539 38.857 17.1429C38.857 15.8318 39.6155 14.689 40.6966 14.371L44.0507 13.3845C44.0505 13.3846 44.0509 13.3845 44.0507 13.3845C45.5448 12.9445 46.9098 12.0349 47.9987 10.7533C49.0878 9.47158 49.8603 7.86575 50.2336 6.10749L51.0725 2.16355C51.343 0.891954 52.3143 0 53.4285 0ZM48.8815 17.1429C49.8061 17.7984 50.6639 18.5863 51.4339 19.4926C52.2033 20.3981 52.8721 21.4065 53.4286 22.4933C53.9855 21.406 54.6548 20.3971 55.4247 19.4914C56.1947 18.5855 57.0523 17.798 57.9766 17.1429C57.0523 16.4877 56.1947 15.7002 55.4247 14.7944C54.6548 13.8886 53.9855 12.8797 53.4286 11.7924C52.8721 12.8792 52.2033 13.8876 51.4339 14.7931C50.6639 15.6995 49.8061 16.4873 48.8815 17.1429ZM24.2859 11.4286C25.3701 11.4287 26.3229 12.2744 26.6208 13.5009L29.2532 24.3424C29.2532 24.3423 29.2533 24.3425 29.2532 24.3424C29.8203 26.676 30.8834 28.8016 32.3422 30.5178C33.8011 32.2341 35.6076 33.4848 37.5913 34.1519L46.8103 37.2529C47.8528 37.6036 48.5714 38.7247 48.5713 40.0003C48.5712 41.2759 47.8524 42.3969 46.8098 42.7472L37.5946 45.8443C37.5944 45.8443 37.5947 45.8442 37.5946 45.8443C35.611 46.5114 33.8042 47.7621 32.3454 49.4784C30.8866 51.1947 29.8235 53.32 29.2565 55.6538C29.247 55.6929 29.2368 55.7317 29.2259 55.7702L26.6208 66.4991C26.3229 67.7257 25.3699 68.5714 24.2856 68.5714C23.2012 68.5714 22.2483 67.7257 21.9504 66.4991L19.318 55.6576C18.751 53.3238 17.6879 51.1985 16.229 49.4822C14.7701 47.7659 12.9636 46.5152 10.9799 45.8481L1.76084 42.7471C0.718362 42.3964 -0.000247893 41.2753 -0.000122054 39.9997C3.78581e-06 38.7241 0.718835 37.6031 1.76138 37.2528L10.9766 34.1557C10.9765 34.1558 10.9768 34.1557 10.9766 34.1557C12.9602 33.4886 14.767 32.2378 16.2257 30.5216C17.6846 28.8053 18.7477 26.68 19.3147 24.3462L21.9506 13.5003C22.2486 12.2738 23.2016 11.4284 24.2859 11.4286ZM24.2846 24.6833L23.9848 25.9167C23.191 29.1839 21.7027 32.1594 19.6603 34.5622C17.6178 36.9651 15.0887 38.7161 12.3115 39.65L11.2664 40.0012L12.3147 40.3538C12.3147 40.3538 12.3148 40.3538 12.3147 40.3538C15.0919 41.2877 17.6211 43.0388 19.6635 45.4416C21.7059 47.8444 23.1943 50.8199 23.9881 54.0872L24.2856 55.3124L24.583 54.0876C24.5933 54.0453 24.6044 54.0034 24.6162 53.9618C25.4172 50.7423 26.8939 47.8108 28.9109 45.4378C30.9533 43.0349 33.4825 41.2839 36.2597 40.35L37.3048 39.9988L36.2564 39.6462C36.2564 39.6462 36.2565 39.6462 36.2564 39.6462C33.4793 38.7123 30.9501 36.9612 28.9077 34.5584C26.8653 32.1556 25.3769 29.1801 24.5831 25.9128L24.2846 24.6833ZM48.5713 51.4286C49.6169 51.4286 50.5451 52.2159 50.8754 53.3829L52.1511 57.8889C52.3895 58.7304 52.7912 59.4951 53.3244 60.1224C53.8576 60.7497 54.5076 61.2223 55.2229 61.5028L59.053 63.0035C60.045 63.3922 60.7142 64.4842 60.7142 65.7143C60.7142 66.9444 60.045 68.0364 59.053 68.425L55.2229 69.9258C55.2227 69.9258 55.2231 69.9257 55.2229 69.9258C54.5078 70.2063 53.8574 70.6791 53.3244 71.3062C52.7912 71.9334 52.3895 72.6981 52.1511 73.5397L50.8754 78.0457C50.5451 79.2127 49.6169 80 48.5713 80C47.5257 80 46.5975 79.2127 46.2672 78.0457L44.9916 73.5397C44.7531 72.6982 44.3514 71.9334 43.8182 71.3062C43.2852 70.6791 42.6354 70.2066 41.9203 69.926C41.9201 69.9259 41.9205 69.9261 41.9203 69.926L38.0896 68.425C37.0976 68.0364 36.4285 66.9444 36.4285 65.7143C36.4285 64.4842 37.0976 63.3922 38.0896 63.0035L41.9197 61.5028C42.635 61.2223 43.285 60.7497 43.8182 60.1224C44.3514 59.4951 44.7531 58.7304 44.9916 57.8889L46.2672 53.3829C46.5975 52.2159 47.5257 51.4286 48.5713 51.4286ZM48.5713 62.2322C48.1938 62.9278 47.7521 63.5755 47.2527 64.163C46.7534 64.7505 46.2028 65.2701 45.6115 65.7143C46.2028 66.1584 46.7534 66.6781 47.2527 67.2656C47.7521 67.853 48.1938 68.5008 48.5713 69.1964C48.9488 68.5008 49.3905 67.853 49.8899 67.2656C50.3893 66.6781 50.9398 66.1584 51.5311 65.7143C50.9398 65.2701 50.3893 64.7505 49.8899 64.163C49.3905 63.5755 48.9488 62.9278 48.5713 62.2322Z" fill="#FFFEFE"/>
</svg>
