<svg width="80" height="68" viewBox="0 0 80 68" fill="none" xmlns="http://www.w3.org/2000/svg">
<path fill-rule="evenodd" clip-rule="evenodd" d="M3.60484 3.31946C5.91298 1.19405 9.04349 0 12.3077 0H67.6923C70.9565 0 74.087 1.19405 76.3952 3.31946C78.7033 5.44487 80 8.32755 80 11.3333V56.6667C80 59.6725 78.7033 62.5551 76.3952 64.6805C74.087 66.806 70.9565 68 67.6923 68H12.3077C9.04349 68 5.91298 66.806 3.60484 64.6805C1.2967 62.5551 0 59.6725 0 56.6667V11.3333C0 8.32755 1.2967 5.44487 3.60484 3.31946ZM6.15385 12.8517V11.3333C6.15385 9.83044 6.8022 8.3891 7.95627 7.3264C9.11034 6.26369 10.6756 5.66667 12.3077 5.66667H67.6923C69.3244 5.66667 70.8897 6.26369 72.0437 7.3264C73.1978 8.3891 73.8462 9.83044 73.8462 11.3333V12.8517C71.9911 11.8655 69.8715 11.3333 67.6923 11.3333H12.3077C10.1285 11.3333 8.00894 11.8655 6.15385 12.8517ZM73.8462 22.6667C73.8462 21.1638 73.1978 19.7224 72.0437 18.6597C70.8897 17.597 69.3244 17 67.6923 17H12.3077C10.6756 17 9.11034 17.597 7.95627 18.6597C6.8022 19.7224 6.15385 21.1638 6.15385 22.6667V24.185C8.00894 23.1988 10.1285 22.6667 12.3077 22.6667H27.6923C29.3916 22.6667 30.7692 23.9352 30.7692 25.5C30.7692 27.7543 31.7418 29.9163 33.4729 31.5104C35.204 33.1045 37.5518 34 40 34C42.4482 34 44.796 33.1045 46.5271 31.5104C48.2582 29.9163 49.2308 27.7543 49.2308 25.5C49.2308 23.9352 50.6084 22.6667 52.3077 22.6667H67.6923C69.8715 22.6667 71.9911 23.1988 73.8462 24.185V22.6667ZM73.8462 34C73.8462 32.4971 73.1978 31.0558 72.0437 29.9931C70.8897 28.9304 69.3244 28.3333 67.6923 28.3333H55.0738C54.475 31.0348 53.0274 33.5386 50.8786 35.5173C47.9934 38.1741 44.0803 39.6667 40 39.6667C35.9198 39.6667 32.0066 38.1741 29.1214 35.5173C26.9726 33.5386 25.525 31.0348 24.9262 28.3333H12.3077C10.6756 28.3333 9.11034 28.9304 7.95627 29.9931C6.8022 31.0558 6.15385 32.4971 6.15385 34V56.6667C6.15385 58.1696 6.8022 59.6109 7.95627 60.6736C9.11034 61.7363 10.6756 62.3333 12.3077 62.3333H67.6923C69.3244 62.3333 70.8897 61.7363 72.0437 60.6736C73.1978 59.6109 73.8462 58.1696 73.8462 56.6667V34Z" fill="#FFFEFE"/>
</svg>
