<svg width="68" height="80" viewBox="0 0 68 80" fill="none" xmlns="http://www.w3.org/2000/svg">
<path fill-rule="evenodd" clip-rule="evenodd" d="M32.8486 0.341511C33.5674 -0.113837 34.4326 -0.113837 35.1514 0.341511L66.7228 20.3415C67.5095 20.8398 68 21.8061 68 22.8572C68 23.9083 67.5094 24.8745 66.7227 25.3728L57.1623 31.4286L66.7227 37.4843C67.5094 37.9826 68 38.9489 68 40C68 41.0511 67.5094 42.0174 66.7227 42.5157L57.1623 48.5714L66.7227 54.6272C67.5094 55.1255 68 56.0917 68 57.1428C68 58.1939 67.5095 59.1602 66.7228 59.6585L35.1514 79.6585C34.4326 80.1138 33.5674 80.1138 32.8486 79.6585L1.27719 59.6585C0.490531 59.1602 -1.9107e-05 58.1939 5.58177e-10 57.1428C1.91081e-05 56.0917 0.490605 55.1255 1.27728 54.6272L10.8377 48.5714L1.27728 42.5157C0.490589 42.0174 5.58177e-10 41.0511 5.58177e-10 40C5.58177e-10 38.9489 0.490589 37.9826 1.27728 37.4843L10.8377 31.4286L1.27728 25.3728C0.490605 24.8745 1.91081e-05 23.9083 5.58177e-10 22.8572C-1.9107e-05 21.8061 0.490531 20.8398 1.27719 20.3415L32.8486 0.341511ZM15.9605 34.6736L32.8485 45.3727C33.5674 45.8281 34.4326 45.8281 35.1515 45.3727L52.0395 34.6736L60.4485 40L34 56.7549L7.55147 40L15.9605 34.6736ZM15.9605 51.8164L32.8485 62.5156C33.5674 62.971 34.4326 62.971 35.1515 62.5156L52.0395 51.8164L60.4487 57.143L34 73.8978L7.55127 57.143L15.9605 51.8164ZM7.55126 22.857L34 39.6121L60.4487 22.857L34 6.10216L7.55126 22.857Z" fill="#FFFEFE"/>
</svg>
