<svg width="49" height="49" viewBox="0 0 49 49" fill="none" xmlns="http://www.w3.org/2000/svg">
<path d="M1.19477 23.2316C0.912759 23.2189 0.63491 23.2901 0.415988 23.4313C0.197066 23.5725 0.0529416 23.7735 0.0119614 23.9946C-0.0290188 24.2156 0.0361344 24.4408 0.194595 24.6258C0.353055 24.8108 0.593336 24.9421 0.868106 24.994C4.61315 25.6588 8.43721 26.0053 12.2753 26.0276C28.5563 26.0276 36.9778 18.6578 42.9819 10.8333L46.608 12.5542C46.7931 12.6412 47.0058 12.6845 47.221 12.6791C47.4362 12.6737 47.6449 12.6197 47.8227 12.5236C48.0005 12.4275 48.1398 12.2933 48.2244 12.1366C48.309 11.98 48.3352 11.8075 48.3001 11.6395L45.9676 0.745022C45.9409 0.611862 45.876 0.485299 45.7779 0.375044C45.6798 0.26479 45.5511 0.173753 45.4016 0.108909C45.2522 0.0440644 45.086 0.00713229 44.9157 0.000933884C44.7454 -0.00526452 44.5756 0.0194569 44.4193 0.0731694L32.0909 4.20769C31.8975 4.27886 31.7336 4.39185 31.618 4.5336C31.5024 4.67535 31.4398 4.84006 31.4375 5.00874C31.4332 5.18121 31.4927 5.3509 31.6088 5.49692C31.7249 5.64293 31.8925 5.75888 32.0909 5.83046L35.8018 7.26722C25.8254 24.5495 2.21397 23.2937 1.19477 23.2316ZM38.2453 7.21038C38.3584 6.99987 38.3653 6.76303 38.2644 6.54865C38.1636 6.33427 37.9627 6.15863 37.703 6.05786L35.24 5.10694L43.9685 2.17661L45.6541 10.0425L43.1584 8.86419C43.0314 8.80305 42.8904 8.76242 42.7435 8.74467C42.5966 8.72693 42.4467 8.73243 42.3025 8.76082C42.0119 8.82131 41.7632 8.96983 41.61 9.17427C35.5666 17.2986 27.6548 24.5237 11.5566 24.2653C20.2394 22.7975 32.1366 18.663 38.2453 7.20521V7.21038Z" fill="white"/>
<path d="M4.82071 34.6221C2.63858 34.6221 0.933411 36.3017 0.933411 38.4517V45.1703C0.933411 47.3202 2.63858 48.9999 4.82071 48.9999H10.1323C12.3079 48.9999 14.0523 47.3202 14.0523 45.1703V38.4517C14.0523 36.3017 12.3406 34.6221 10.1323 34.6221H4.82071ZM11.7591 38.4517V45.1703C11.7591 46.2608 11.0012 47.2375 10.1323 47.2375H4.82071C3.95178 47.2375 3.19392 46.2814 3.19392 45.1703V38.4517C3.19392 37.3612 3.95178 36.3844 4.82071 36.3844H10.1323C11.0012 36.4051 11.7591 37.3612 11.7591 38.4517Z" fill="white"/>
<path d="M20.8798 28.3271C18.6976 28.3271 16.9598 30.0068 16.9598 32.1567V45.165C16.9598 47.3149 18.665 48.9946 20.8798 48.9946H26.1914C28.367 48.9946 30.1114 47.3149 30.1114 45.165V32.1567C30.1114 30.0068 28.3996 28.3271 26.1914 28.3271H20.8798ZM27.8182 32.1567V45.165C27.8182 46.2555 27.0603 47.2322 26.1914 47.2322H20.8798C20.0108 47.2322 19.2529 46.2761 19.2529 45.165V32.1567C19.2529 31.0663 20.0108 30.0895 20.8798 30.0895H26.1914C27.0603 30.1101 27.8182 31.0663 27.8182 32.1567Z" fill="white"/>
<path d="M43.8315 20.7715H38.5199C36.3443 20.7715 34.6391 22.4563 34.6391 24.6011V45.1651C34.6391 47.3151 36.3443 48.9947 38.5199 48.9947H43.8315C46.0136 48.9947 47.7515 47.3151 47.7515 45.1651V24.6011C47.7188 22.4563 46.0136 20.7715 43.8315 20.7715ZM45.4648 45.1651C45.4648 46.2556 44.7004 47.2324 43.8315 47.2324H38.5199C37.6575 47.2324 36.893 46.2763 36.893 45.1651V24.6011C36.893 23.5106 37.6575 22.5338 38.5199 22.5338H43.8315C44.7004 22.5338 45.4648 23.4847 45.4648 24.6011V45.1651Z" fill="white"/>
</svg>
