<svg width="67" height="45" viewBox="0 0 67 45" fill="none" xmlns="http://www.w3.org/2000/svg">
<path d="M0.336242 38.6302C0.441742 38.739 0.568135 38.8253 0.707797 38.8842C0.847459 38.943 0.997531 38.973 1.14907 38.9724H19.6371C19.4042 40.2864 19.2755 41.6167 19.252 42.9509C19.2502 43.1041 19.2789 43.2561 19.3364 43.3981C19.394 43.5401 19.4792 43.6692 19.5871 43.778C19.6937 43.8873 19.8212 43.974 19.9621 44.0328C20.103 44.0916 20.2544 44.1214 20.4071 44.1203H45.8824C46.1814 44.1205 46.469 44.0046 46.6844 43.7972C46.8998 43.5897 47.0263 43.3068 47.0374 43.008C47.0476 41.6616 46.9475 40.3167 46.738 38.9867H65.3472C65.6455 38.9868 65.9322 38.8708 66.1465 38.6632C66.3608 38.4555 66.4858 38.1726 66.4951 37.8744C66.4951 37.4823 66.7446 28.1491 60.8909 22.7874C60.6912 22.606 60.4341 22.5003 60.1645 22.4885C59.8949 22.4768 59.6298 22.5599 59.415 22.7233C59.3437 22.7803 52.5418 27.8925 46.2104 22.7233C46.0019 22.5505 45.7396 22.456 45.4689 22.456C45.1981 22.456 44.9358 22.5505 44.7273 22.7233C43.2341 24.1578 42.0099 25.8482 41.1125 27.7142C40.9253 27.6319 40.7196 27.601 40.5165 27.6248C40.3135 27.6487 40.1204 27.7263 39.9574 27.8497C39.6794 28.0636 33.0485 32.9904 26.7456 27.8497C26.5978 27.7306 26.4227 27.6499 26.236 27.6151C26.0494 27.5803 25.857 27.5923 25.6761 27.65C24.8443 25.808 23.657 24.1483 22.1824 22.766C21.9815 22.5841 21.7234 22.4781 21.4525 22.4663C21.1817 22.4546 20.9153 22.5379 20.6994 22.7019C20.6353 22.7589 13.8333 27.8711 7.49474 22.7019C7.28625 22.5291 7.02396 22.4346 6.7532 22.4346C6.48244 22.4346 6.22023 22.5291 6.01174 22.7019C5.77645 22.9158 0.143755 27.921 0.00115555 37.7746C-0.00580116 37.9327 0.0204669 38.0905 0.078182 38.2379C0.135897 38.3852 0.22376 38.5189 0.336242 38.6302ZM45.5971 25.1332C51.622 29.3327 57.7609 26.4166 59.964 25.0904C63.3864 28.7623 64.0495 34.3166 64.1707 36.6694H46.2817C45.6768 34.0383 44.5092 31.5694 42.8593 29.4325C43.5602 27.8751 44.4823 26.427 45.5971 25.1332ZM26.1396 30.2739C32.1573 34.4734 38.3033 31.5573 40.5064 30.2311C43.9288 33.903 44.5847 39.4572 44.7059 41.8101H21.6049C21.8148 37.5724 23.4076 33.5202 26.1396 30.2739ZM6.88871 25.1332C12.9064 29.3327 19.0524 26.4166 21.2556 25.0904C22.388 26.3439 23.282 27.7937 23.8936 29.3684C22.1772 31.535 20.9095 34.0218 20.1647 36.6837H2.3398C2.54539 32.4382 4.14412 28.3788 6.88871 25.1332Z" fill="white"/>
<path d="M13.8903 21.7748C15.3203 21.7785 16.7368 21.498 18.0575 20.9496C19.3781 20.4013 20.5767 19.596 21.5835 18.5806C21.8665 18.2965 22.1331 17.9965 22.3821 17.6822C22.7734 20.256 24.0723 22.605 26.0441 24.3048C28.0159 26.0047 30.5306 26.9433 33.134 26.9511C35.775 26.951 38.3258 25.9902 40.3107 24.248C42.2956 22.5058 43.579 20.1012 43.9216 17.4825C44.9334 18.8256 46.2431 19.9155 47.7475 20.6665C49.252 21.4175 50.9102 21.809 52.5917 21.8104C54.6882 21.8145 56.7414 21.214 58.5053 20.0809C60.2692 18.9477 61.6689 17.3301 62.5368 15.4216C63.4047 13.5132 63.7038 11.395 63.3984 9.32082C63.0931 7.24667 62.1961 5.30459 60.815 3.72726C59.434 2.14993 57.6273 1.00429 55.6117 0.427614C53.5961 -0.149067 51.4569 -0.132336 49.4506 0.475832C47.4442 1.084 45.6558 2.2578 44.2996 3.85655C42.9434 5.45531 42.0769 7.41121 41.8041 9.48988C40.8671 8.2438 39.673 7.21378 38.303 6.46971C36.9329 5.72563 35.4189 5.28488 33.8635 5.17736C32.3082 5.06984 30.7479 5.29806 29.2885 5.84653C27.8291 6.39501 26.5047 7.25091 25.4052 8.3562C25.1242 8.64012 24.86 8.94009 24.6138 9.25458C24.301 7.19285 23.4027 5.26428 22.0258 3.69823C20.6488 2.13219 18.851 0.994558 16.8463 0.420564C14.8415 -0.15343 12.714 -0.139606 10.7169 0.460383C8.71973 1.06037 6.93699 2.22127 5.58048 3.80507C4.22396 5.38887 3.35082 7.32891 3.06489 9.39454C2.77895 11.4602 3.09217 13.5645 3.96745 15.4572C4.84272 17.35 6.24318 18.9515 8.00224 20.0714C9.7613 21.1914 11.805 21.7826 13.8903 21.7748ZM46.5312 4.81264C47.5303 3.83121 48.755 3.11001 50.0978 2.71238C51.4407 2.31475 52.8605 2.25282 54.2329 2.53205C55.6053 2.81127 56.8881 3.4231 57.9688 4.31384C59.0495 5.20457 59.8951 6.34698 60.4312 7.64077C60.9674 8.93456 61.1777 10.3402 61.0438 11.7342C60.9099 13.1283 60.4359 14.4682 59.6633 15.6362C58.8907 16.8043 57.8431 17.7649 56.6126 18.4337C55.3821 19.1024 54.0064 19.4589 52.6059 19.4718C50.9006 19.4875 49.2295 18.9933 47.8071 18.0524C46.3846 17.1116 45.2757 15.7672 44.6229 14.1917C43.97 12.6162 43.8028 10.8815 44.1429 9.21037C44.4829 7.53919 45.3146 6.00776 46.5312 4.81264ZM27.1021 9.96044C27.8958 9.15868 28.8409 8.52265 29.8825 8.08935C30.9242 7.65605 32.0415 7.43414 33.1697 7.43645C34.8765 7.41925 36.5494 7.91297 37.9734 8.85413C39.3974 9.79529 40.5074 11.1409 41.1606 12.7179C41.8138 14.2949 41.9803 16.0312 41.6389 17.7036C41.2974 19.376 40.4635 20.9081 39.2444 22.1028C38.4502 22.9032 37.5047 23.5379 36.4631 23.97C35.4215 24.402 34.3045 24.6229 33.1768 24.6196C31.4721 24.6339 29.802 24.1386 28.3806 23.1972C26.9593 22.2559 25.8517 20.9114 25.1997 19.3362C24.5477 17.761 24.3811 16.0269 24.7213 14.3564C25.0616 12.6859 25.8931 11.1551 27.1092 9.96044H27.1021ZM7.85123 4.81973C8.64575 4.01711 9.59206 3.38062 10.635 2.94729C11.6779 2.51397 12.7966 2.29248 13.926 2.29574C16.2046 2.29574 18.3899 3.20092 20.0011 4.81216C21.6124 6.42339 22.5175 8.60869 22.5175 10.8873C22.5175 13.166 21.6124 15.3513 20.0011 16.9625C18.3899 18.5737 16.2046 19.479 13.926 19.479C12.2206 19.4947 10.5495 19.0004 9.12709 18.0596C7.70466 17.1188 6.59577 15.7743 5.94289 14.1988C5.29001 12.6233 5.12287 10.8886 5.46289 9.21746C5.80291 7.54629 6.63463 6.01485 7.85123 4.81973Z" fill="white"/>
</svg>
