<svg width="64" height="60" viewBox="0 0 64 60" fill="none" xmlns="http://www.w3.org/2000/svg">
<path d="M2.48305 8.89281L7.23271 11.4818L14.2556 39.327L10.9437 41.9161C10.5553 42.2188 10.2415 42.6052 10.0263 43.0461C9.8111 43.4869 9.70008 43.9706 9.70167 44.4604V49.34C9.70357 50.1918 10.0432 51.0087 10.6474 51.6145C11.2515 52.2203 12.0716 52.5664 12.9309 52.5781L16.1902 52.6304C16.0236 53.1439 15.9399 53.6802 15.9418 54.2196C15.8629 54.9483 15.9395 55.6854 16.1668 56.3828C16.3941 57.0802 16.767 57.7224 17.2611 58.2676C17.7552 58.8128 18.3596 59.2488 19.0349 59.5473C19.7103 59.8458 20.4414 60 21.1807 60C21.9201 60 22.6512 59.8458 23.3266 59.5473C24.0019 59.2488 24.6063 58.8128 25.1004 58.2676C25.5945 57.7224 25.9674 57.0802 26.1947 56.3828C26.422 55.6854 26.4986 54.9483 26.4197 54.2196C26.4218 53.7148 26.3508 53.2122 26.2089 52.7274L47.9101 53.0333C47.8258 53.4106 47.7829 53.7959 47.7821 54.1823C47.9209 55.4636 48.5327 56.6488 49.4998 57.51C50.4669 58.3712 51.721 58.8476 53.021 58.8476C54.3211 58.8476 55.5752 58.3712 56.5423 57.51C57.5094 56.6488 58.1213 55.4636 58.26 54.1823C58.2589 53.8439 58.2236 53.5065 58.1547 53.175H59.5849C60.4436 53.1712 61.2667 52.834 61.8774 52.2355C62.4881 51.6371 62.8379 50.8253 62.8517 49.9742C62.8617 49.1159 62.5284 48.2887 61.9246 47.6734C61.3209 47.0581 60.4958 46.705 59.63 46.6912L16.2428 46.0869V45.975L18.5387 44.1768C18.7454 44.2087 18.9542 44.2262 19.1634 44.2291L54.6545 44.5499C55.73 44.5556 56.7752 44.1971 57.6171 43.5335C58.459 42.87 59.047 41.9413 59.2837 40.9013L63.8829 21.0546C64.1601 19.8379 63.9406 18.5619 63.2721 17.5051C62.6037 16.4483 61.5406 15.6966 60.315 15.4139C59.0875 15.1391 57.8003 15.3567 56.7341 16.0193C55.668 16.6819 54.9095 17.7356 54.6243 18.9505L50.8607 35.104L22.9045 34.8503L15.9117 7.14687C15.7542 6.51866 15.4676 5.92942 15.07 5.41591C14.6724 4.90241 14.1722 4.47566 13.6007 4.16239L7.02946 0.581025C5.92647 -0.0195515 4.628 -0.161214 3.41964 0.187198C2.21128 0.535611 1.19206 1.34555 0.586169 2.43886C-0.0197246 3.53216 -0.162641 4.81928 0.188856 6.01704C0.540353 7.21479 1.35746 8.22507 2.46045 8.82564L2.48305 8.89281ZM2.88946 3.74457C3.16414 3.25103 3.62531 2.88578 4.17154 2.72908C4.71777 2.57238 5.30437 2.63707 5.80251 2.90892L12.3664 6.48282C12.6249 6.62467 12.8512 6.81781 13.0312 7.05015C13.2112 7.28249 13.341 7.5491 13.4126 7.83334L20.6463 36.5067C20.7153 36.7836 20.8758 37.0295 21.1023 37.2053C21.3288 37.3811 21.6081 37.4767 21.8958 37.4767L51.907 37.7527C52.2015 37.7487 52.4865 37.6485 52.7178 37.4678C52.9491 37.2871 53.1139 37.0358 53.1867 36.7529L57.161 19.5922C57.2888 19.042 57.6318 18.5648 58.1146 18.2654C58.5974 17.9659 59.1804 17.8688 59.7354 17.9955C60.2903 18.1221 60.7719 18.4621 61.074 18.9407C61.376 19.4192 61.474 19.9971 61.3462 20.5472L56.7471 40.394C56.6387 40.8662 56.3705 41.2873 55.987 41.5874C55.6035 41.8874 55.1279 42.0482 54.6394 42.0429L19.186 41.7146C18.984 41.7123 18.7834 41.6796 18.5913 41.6176C18.3919 41.5586 18.181 41.5482 17.9766 41.5871C17.7722 41.6261 17.5803 41.7133 17.4171 41.8415L14.1352 44.4007C13.9816 44.5226 13.8572 44.6769 13.7713 44.8524C13.6853 45.028 13.64 45.2203 13.6384 45.4154V47.4225C13.6384 47.7622 13.7735 48.0883 14.0145 48.3299C14.2555 48.5716 14.5828 48.7093 14.9255 48.7132L59.5924 49.34C59.6812 49.3391 59.7692 49.3566 59.8509 49.3912C59.9325 49.4259 60.006 49.4771 60.0666 49.5414C60.1606 49.635 60.2239 49.7545 60.2483 49.8843C60.2727 50.0141 60.257 50.1482 60.2033 50.269C60.1497 50.3899 60.0606 50.4919 59.9475 50.5617C59.8345 50.6316 59.7029 50.666 59.5698 50.6606L56.1825 50.6158C55.94 50.613 55.7016 50.6774 55.494 50.8017C55.2865 50.926 55.118 51.1053 55.0077 51.3193C54.8973 51.5334 54.8495 51.7737 54.8696 52.0132C54.8896 52.2528 54.9768 52.482 55.1211 52.6751C55.4667 53.1201 55.6545 53.6656 55.6556 54.2271C55.683 54.5866 55.6353 54.9479 55.5153 55.2883C55.3954 55.6287 55.2057 55.9408 54.9584 56.2052C54.7111 56.4696 54.4114 56.6806 54.0781 56.8248C53.7447 56.969 53.3848 57.0435 53.021 57.0435C52.6573 57.0435 52.2974 56.969 51.9641 56.8248C51.6307 56.6806 51.3309 56.4696 51.0836 56.2052C50.8363 55.9408 50.6467 55.6287 50.5268 55.2883C50.4068 54.9479 50.359 54.5866 50.3865 54.2271C50.3914 53.6393 50.5985 53.0707 50.9736 52.6154C51.1221 52.4261 51.2148 52.1997 51.2414 51.9613C51.2679 51.7229 51.2274 51.4819 51.1242 51.265C51.0224 51.0459 50.8603 50.8597 50.6566 50.7277C50.4529 50.5958 50.2158 50.5234 49.9725 50.5188L23.9733 50.1607C23.7074 50.1512 23.445 50.2231 23.2217 50.3666C22.9985 50.5102 22.8253 50.7185 22.7257 50.9632C22.6262 51.2078 22.6051 51.4769 22.6653 51.7338C22.7256 51.9908 22.8643 52.2231 23.0626 52.3991C23.3682 52.704 23.5933 53.0788 23.7183 53.4903C23.8432 53.9019 23.864 54.3376 23.7789 54.7591C23.6938 55.1805 23.5053 55.5747 23.2301 55.9069C22.9549 56.2391 22.6014 56.499 22.201 56.6637C21.8005 56.8285 21.3652 56.8929 20.9336 56.8515C20.502 56.8101 20.0874 56.664 19.7262 56.4262C19.365 56.1883 19.0684 55.8661 18.8627 55.4878C18.6569 55.1094 18.5482 54.6867 18.5462 54.2569C18.5466 53.8986 18.6224 53.5442 18.7688 53.2166C18.9153 52.889 19.1292 52.5953 19.3968 52.3543C19.5918 52.1808 19.7292 51.9527 19.7906 51.7001C19.8521 51.4476 19.8347 51.1825 19.7409 50.9399C19.6471 50.6973 19.4812 50.4887 19.2652 50.3416C19.0492 50.1945 18.7932 50.1158 18.5311 50.116L12.9685 50.0339C12.7934 50.03 12.6269 49.9583 12.5045 49.8342C12.3821 49.7101 12.3136 49.5434 12.3136 49.3698V44.4902C12.313 44.3895 12.3358 44.2901 12.3801 44.1995C12.4245 44.1089 12.4893 44.0297 12.5695 43.9679L16.5364 40.864C16.7328 40.7111 16.8802 40.5048 16.9604 40.2703C17.0405 40.0358 17.0501 39.7833 16.988 39.5434L9.61888 10.3403C9.57607 10.1687 9.49774 10.0078 9.38889 9.86782C9.28005 9.72782 9.143 9.61175 8.98653 9.527L3.71744 6.66192C3.4682 6.52587 3.24883 6.34201 3.07195 6.12109C2.89507 5.90017 2.76428 5.64661 2.68722 5.37511C2.61017 5.10361 2.58836 4.81962 2.62309 4.53969C2.65781 4.25976 2.74834 3.98947 2.88946 3.74457Z" fill="white"/>
<path d="M39.8483 5.57227H33.676C32.7849 5.57424 31.931 5.92648 31.3017 6.55173C30.6723 7.17698 30.3188 8.02415 30.3188 8.9074V16.8088H28.4144C27.9077 16.7376 27.3913 16.8258 26.9377 17.0608C26.4842 17.2958 26.1164 17.6659 25.8862 18.119C25.656 18.5721 25.575 19.0853 25.6545 19.5864C25.734 20.0875 25.97 20.5513 26.3294 20.9125L34.1803 31.3582C34.4646 31.7783 34.8488 32.1226 35.299 32.3606C35.7493 32.5987 36.2518 32.7233 36.7621 32.7233C37.2725 32.7233 37.7749 32.5987 38.2252 32.3606C38.6755 32.1226 39.0598 31.7783 39.344 31.3582L47.1949 20.9125C47.5543 20.5513 47.7904 20.0875 47.8699 19.5864C47.9494 19.0853 47.8683 18.5721 47.6381 18.119C47.4079 17.6659 47.0402 17.2958 46.5866 17.0608C46.1331 16.8258 45.6166 16.7376 45.1099 16.8088H43.2055V8.92981C43.2085 8.49058 43.1239 8.05511 42.9566 7.64837C42.7893 7.24163 42.5426 6.87163 42.2307 6.55965C41.9188 6.24768 41.5477 5.99987 41.1388 5.83043C40.73 5.66098 40.2914 5.57324 39.8483 5.57227ZM45.1174 19.383L37.274 29.8286C37.2295 29.9219 37.1592 30.0008 37.0712 30.056C36.9833 30.1112 36.8813 30.1406 36.7772 30.1406C36.6731 30.1406 36.5711 30.1112 36.4832 30.056C36.3952 30.0008 36.3249 29.9219 36.2804 29.8286L28.437 19.383H31.6361C31.8068 19.383 31.9757 19.3495 32.1333 19.2845C32.2909 19.2196 32.4339 19.1244 32.5542 19.0044C32.6746 18.8845 32.7698 18.7421 32.8344 18.5856C32.899 18.429 32.9318 18.2613 32.9308 18.0922V8.92981C32.9308 8.73192 33.0101 8.54216 33.1512 8.40223C33.2924 8.26231 33.4839 8.18369 33.6835 8.18369H39.8558C40.0555 8.18369 40.247 8.26231 40.3881 8.40223C40.5293 8.54216 40.6086 8.73192 40.6086 8.92981V18.1145C40.6086 18.4569 40.7458 18.7852 40.99 19.0273C41.2342 19.2694 41.5655 19.4053 41.9108 19.4053L45.1174 19.383Z" fill="white"/>
</svg>
