<svg width="74" height="86" viewBox="0 0 74 86" fill="none" xmlns="http://www.w3.org/2000/svg">
<path d="M46.5292 19.3885C46.5292 17.8722 47.2039 16.5012 47.9838 15.2924C48.7855 14.0538 49.2498 12.5845 49.2498 11.0084C49.2498 6.58351 45.5969 3 41.088 3C36.5791 3 32.9263 6.58778 32.9263 11.0084C32.9263 12.5845 33.3906 14.0538 34.1923 15.2924C34.9722 16.5012 35.6469 17.8722 35.6469 19.3885C35.6485 19.7547 35.5875 20.1176 35.4677 20.4556C35.3478 20.7935 35.1715 21.0997 34.9492 21.3559C34.7269 21.612 34.4631 21.813 34.1736 21.9468C33.884 22.0806 33.5746 22.1446 33.2637 22.1348C28.2167 21.9637 23.1783 21.5361 18.1627 20.8535C18.8374 27.7429 19.2255 34.7348 19.3053 41.8121C19.3087 42.1833 19.2494 42.5516 19.1308 42.8955C19.0123 43.2395 18.8369 43.5523 18.6148 43.8158C18.3928 44.0792 18.1284 44.2881 17.8372 44.4303C17.546 44.5725 17.2337 44.6451 16.9185 44.6439C15.6307 44.6439 14.4663 43.8495 13.4398 42.9312C12.4 41.9749 11.1207 41.4508 9.80144 41.4405C6.04342 41.4405 3 45.7416 3 51.0507C3 56.3597 6.04704 60.6608 9.80144 60.6608C11.14 60.6608 12.3878 60.1141 13.4398 59.1702C14.4663 58.2519 15.6307 57.4574 16.9185 57.4574C18.043 57.4574 18.9317 58.5679 18.8483 59.892C18.3971 67.1338 17.6197 74.3423 16.5194 81.487C22.0259 82.2986 27.6121 82.8068 33.2637 82.999C33.5746 83.0088 33.884 82.9448 34.1736 82.811C34.4631 82.6772 34.7269 82.4762 34.9492 82.2201C35.1715 81.9639 35.3478 81.6577 35.4677 81.3198C35.5875 80.9818 35.6485 80.6189 35.6469 80.2527C35.6469 78.7364 34.9722 77.3654 34.1923 76.1566C33.3802 74.9324 32.935 73.426 32.9263 71.8726C32.9263 67.452 36.5828 63.8642 41.088 63.8642C45.5969 63.8642 49.2498 67.452 49.2498 71.8726C49.2498 73.4487 48.7855 74.918 47.9838 76.1566C47.2039 77.3654 46.5328 78.7364 46.5328 80.2527C46.5328 81.675 47.5376 82.8111 48.7456 82.73C55.3456 82.2729 61.9182 81.3745 68.4316 80.0391C69.4172 73.3685 70.1218 66.6446 70.5428 59.892C70.5618 59.5799 70.5258 59.2665 70.4371 58.9715C70.3485 58.6765 70.209 58.4063 70.0275 58.1777C69.846 57.9491 69.6263 57.7672 69.3823 57.6432C69.1383 57.5193 68.8751 57.456 68.6094 57.4574C67.3216 57.4574 66.1572 58.2519 65.1307 59.1702C64.0787 60.1141 62.8309 60.6608 61.4924 60.6608C57.738 60.6608 54.6909 56.3597 54.6909 51.0507C54.6909 45.7416 57.738 41.4405 61.4924 41.4405C62.8345 41.4405 64.0787 41.9872 65.1307 42.9312C66.1572 43.8495 67.3216 44.6439 68.613 44.6439C68.9283 44.6451 69.2406 44.5725 69.5318 44.4303C69.823 44.2881 70.0873 44.0792 70.3094 43.8158C70.5315 43.5523 70.7069 43.2395 70.8254 42.8955C70.9439 42.5516 71.0032 42.1833 70.9999 41.8121C70.9127 34.1576 70.4646 26.5147 69.6577 18.9187C62.8164 20.3794 55.8372 21.3703 48.7419 21.8615C48.4564 21.8801 48.1706 21.8298 47.9022 21.7136C47.6338 21.5973 47.3884 21.4177 47.1811 21.1856C46.9738 20.9536 46.8091 20.6741 46.697 20.3643C46.5849 20.0545 46.5278 19.7252 46.5292 19.3885Z" stroke="#FFFEFE" stroke-width="4.80101" stroke-linecap="round" stroke-linejoin="round"/>
</svg>
