<svg width="38" height="32" viewBox="0 0 38 32" fill="none" xmlns="http://www.w3.org/2000/svg">
<path d="M0.776474 11.5221H3.29112L1.47497 2.28802L2.64581 1.62179C7.22936 5.79907 12.2453 8.99704 18.1128 9.42343C19.1705 6.97169 19.756 4.54655 21.1264 2.70775C23.1953 -0.0837642 27.0005 -0.536764 30.1804 0.582508C32.3291 1.34201 34.6774 1.52187 36.9991 1.97491C37.1388 1.66178 36.9459 2.21474 36.6599 2.70775C36.3738 3.20076 35.9946 3.57386 35.4757 4.29339H37.0656C36.141 7.3514 34.857 10.3828 34.3315 13.534C31.8102 28.7441 14.5404 36.6124 1.48829 28.491L11.467 25.6195L3.92308 20.1032L5.88556 19.0571L0.776474 11.5221Z" fill="#284B82"/>
</svg>
